<?xml version="1.0" encoding="UTF-8"?>
<!DOCTYPE svg PUBLIC "-//W3C//DTD SVG 1.1//EN" "http://www.w3.org/Graphics/SVG/1.1/DTD/svg11.dtd">
<!-- Creator: CorelDRAW X8 -->
<svg xmlns="http://www.w3.org/2000/svg" xml:space="preserve" width="155.956mm" height="279.4mm" version="1.1" style="shape-rendering:geometricPrecision; text-rendering:geometricPrecision; image-rendering:optimizeQuality; fill-rule:evenodd; clip-rule:evenodd"
viewBox="0 0 15596 27940"
 xmlns:xlink="http://www.w3.org/1999/xlink">
 <defs>
  <style type="text/css">
   <![CDATA[
    .str5 {stroke:#445788;stroke-width:20}
    .str1 {stroke:#455A8B;stroke-width:20}
    .str2 {stroke:#475F8E;stroke-width:20}
    .str7 {stroke:#4C709A;stroke-width:20}
    .str3 {stroke:#4F78A0;stroke-width:20}
    .str4 {stroke:#507DA3;stroke-width:20}
    .str6 {stroke:#5282A6;stroke-width:20}
    .str8 {stroke:#373766;stroke-width:7.62}
    .str0 {stroke:#65B3CD;stroke-width:7.62}
    .fil15 {fill:#002F6C}
    .fil7 {fill:#445788}
    .fil3 {fill:#455A8B}
    .fil4 {fill:#475F8E}
    .fil9 {fill:#4C709A}
    .fil5 {fill:#4F78A0}
    .fil6 {fill:#507DA3}
    .fil8 {fill:#5282A6}
    .fil2 {fill:#65B3CD}
    .fil10 {fill:url(#id0)}
    .fil14 {fill:url(#id1)}
    .fil12 {fill:url(#id2)}
    .fil11 {fill:url(#id3)}
    .fil13 {fill:url(#id4)}
    .fil0 {fill:url(#id5)}
    .fil1 {fill:url(#id6)}
   ]]>
  </style>
  <linearGradient id="id0" gradientUnits="userSpaceOnUse" x1="9069.53" y1="18899.6" x2="9090.91" y2="14457.3">
   <stop offset="0" style="stop-opacity:1; stop-color:#002F6C"/>
   <stop offset="0.921569" style="stop-opacity:1; stop-color:#7F97B5"/>
   <stop offset="1" style="stop-opacity:1; stop-color:white"/>
  </linearGradient>
  <linearGradient id="id1" gradientUnits="userSpaceOnUse" x1="13473.1" y1="17715.8" x2="14073.7" y2="12405.5">
   <stop offset="0" style="stop-opacity:1; stop-color:#002F6C"/>
   <stop offset="0.788235" style="stop-opacity:1; stop-color:#7F97B5"/>
   <stop offset="1" style="stop-opacity:1; stop-color:white"/>
  </linearGradient>
  <linearGradient id="id2" gradientUnits="userSpaceOnUse" x1="11368.8" y1="18072.4" x2="11303.8" y2="15278.4">
   <stop offset="0" style="stop-opacity:1; stop-color:#002F6C"/>
   <stop offset="0.831373" style="stop-opacity:1; stop-color:#7F97B5"/>
   <stop offset="1" style="stop-opacity:1; stop-color:white"/>
  </linearGradient>
  <linearGradient id="id3" gradientUnits="userSpaceOnUse" x1="9069.68" y1="18839.2" x2="9090.91" y2="14457.3">
   <stop offset="0" style="stop-opacity:1; stop-color:#002F6C"/>
   <stop offset="0.909804" style="stop-opacity:1; stop-color:#7F97B5"/>
   <stop offset="1" style="stop-opacity:1; stop-color:white"/>
  </linearGradient>
  <linearGradient id="id4" gradientUnits="userSpaceOnUse" xlink:href="#id2" x1="11368.8" y1="18072.4" x2="11303.8" y2="15278.4">
  </linearGradient>
  <linearGradient id="id5" gradientUnits="userSpaceOnUse" x1="7872.31" y1="17035.6" x2="7872.31" y2="-1485.56">
   <stop offset="0" style="stop-opacity:1; stop-color:#81D4FA"/>
   <stop offset="0.301961" style="stop-opacity:1; stop-color:#60ACC4"/>
   <stop offset="1" style="stop-opacity:1; stop-color:#352968"/>
  </linearGradient>
  <linearGradient id="id6" gradientUnits="userSpaceOnUse" x1="6182.16" y1="23424.1" x2="-209.96" y2="16017.5">
   <stop offset="0" style="stop-opacity:1; stop-color:#01579B"/>
   <stop offset="0.74902" style="stop-opacity:1; stop-color:#3B4072"/>
   <stop offset="1" style="stop-opacity:1; stop-color:#252851"/>
  </linearGradient>
 </defs>
 <g id="Warstwa_x0020_1">
  <metadata id="CorelCorpID_0Corel-Layer"/>
  <path class="fil0" d="M15273 27446l-14838 0c-356,0 -645,-283 -645,-632l0 -26818c0,-348 289,-631 645,-631l14838 0c356,0 644,283 644,631l0 26816c2,351 -286,634 -644,634z"/>
  <path class="fil1" d="M-210 16093c0,0 4276,-823 9818,2955 5760,4112 4179,6117 4179,6117l-13997 -618 0 -8454z"/>
  <path class="fil2 str0" d="M14202 7063c-24,5 -48,8 -72,12 -397,60 -794,-37 -1118,-275 -323,-239 -534,-589 -594,-986 -35,-226 -18,-452 47,-664 29,-94 66,-185 113,-271 -102,26 -198,63 -290,108 -608,299 -980,965 -873,1670 133,870 945,1468 1815,1336 481,-73 878,-354 1116,-737 53,-88 100,-182 136,-279 -89,37 -182,67 -280,86zm-2359 108l4 0 2 9 -6 -9zm2179 152l-2 -13c5,-1 9,-1 14,-1 -4,4 -8,9 -12,14zm-1274 431l3 15c-16,-2 -31,-5 -47,-9l44 -6zm-119 -1005l-15 3 -4 -24c7,7 13,14 19,21zm-705 -1184l-9 2c2,-4 5,-7 8,-10l1 8z"/>
  <circle class="fil3 str1" cx="1935" cy="2537" r="166"/>
  <circle class="fil4 str2" cx="4053" cy="3979" r="166"/>
  <circle class="fil5 str3" cx="14615" cy="5726" r="166"/>
  <circle class="fil6 str4" cx="10163" cy="6347" r="166"/>
  <circle class="fil7 str5" cx="5985" cy="2929" r="166"/>
  <circle class="fil8 str6" cx="1565" cy="6888" r="166"/>
  <circle class="fil9 str7" cx="7420" cy="5391" r="166"/>
  <circle class="fil3 str1" cx="13108" cy="2129" r="166"/>
  <g id="_2796772051312">
   <path class="fil10" d="M8935 17197c153,446 146,924 138,1397 -2,95 -3,190 -3,306l-124 0c0,-88 2,-198 4,-308 7,-461 15,-928 -132,-1354l117 -41z"/>
   <path class="fil11" d="M9015 15367l0 0 0 1c290,0 566,74 774,223 228,164 373,409 373,738l1 0 0 0 0 0 -1 0c0,309 -125,588 -326,790 -202,201 -481,326 -790,326l0 1 0 0 0 0 0 -1c-309,0 -588,-125 -790,-326 -201,-202 -326,-481 -326,-790l-1 0 0 0 0 0 1 0c0,-323 125,-566 333,-731 194,-154 457,-230 752,-230l0 -1 0 0zm0 494l0 1 0 0 0 0 0 -1c-186,0 -342,41 -447,124 -91,72 -145,186 -145,344l1 0 0 0 0 0 -1 0c0,171 70,327 183,440 113,113 269,183 440,183l0 -1 0 0 0 0 0 1c171,0 327,-70 440,-183 113,-113 183,-269 183,-440l-1 0 0 0 0 0 1 0c0,-152 -65,-264 -168,-338 -121,-87 -296,-130 -486,-130z"/>
  </g>
  <g id="_2796772049840">
   <path class="fil12" d="M11181 17023c-31,206 -50,397 -49,585 1,188 22,374 74,573l-120 31c-54,-209 -76,-406 -77,-603 -2,-197 19,-394 50,-604l122 18z"/>
   <path class="fil13" d="M11091 15955l0 0 0 0c198,0 376,80 505,208 128,129 208,307 208,505l1 0 0 0c0,197 -53,347 -163,458 -109,109 -260,161 -458,161l0 1 0 0 0 -1c-167,0 -352,-39 -497,-122 -181,-102 -308,-265 -308,-497l-1 0 0 0 0 0 1 0c0,-198 79,-376 208,-505 128,-128 307,-208 504,-208l0 0 0 0zm0 493l0 1 0 0 0 0 0 -1c-60,0 -114,25 -154,65 -40,40 -65,95 -65,155l1 0 0 0 0 0 -1 0c0,25 24,49 58,68 70,39 164,58 254,58l0 -1 0 0 0 1c60,0 96,-6 108,-18 12,-12 18,-48 18,-108l0 0 1 0c0,-60 -25,-115 -65,-155 -40,-40 -95,-65 -155,-65z"/>
  </g>
  <path class="fil14" d="M12189 18706c91,-344 174,-702 243,-1091 58,-330 104,-679 134,-1056l-199 -29 29 -213 138 -1019 7 -54 31 -44 158 -220 177 -250 162 228 449 -860 236 -453 162 485c69,205 127,413 167,625 14,71 25,143 34,215l161 -134 124 243 172 335 34 67 -15 76 -211 1022 -34 165 -167 9c-119,358 -211,708 -282,1051 -81,388 -136,768 -175,1142l-432 -44c40,-389 97,-783 181,-1186 84,-404 196,-818 344,-1244l48 -138 125 -6 161 -783 -13 -26 -71 60 -361 301 4 -470c2,-193 -18,-385 -54,-575 -3,-15 -6,-30 -9,-46l-358 686 -165 316 -183 -260 -85 630 169 25 -12 199c-28,477 -82,907 -152,1305 -70,397 -157,768 -251,1127l-421 -111z"/>
  <path class="fil15 str8" d="M-294 27737c0,322 290,584 648,584l14915 0c358,0 648,-262 648,-584l0 -9593c-7666,-1271 -16127,2982 -16127,2982l-86 6611 2 0z"/>
 </g>
</svg>
