<?xml version="1.0" encoding="UTF-8"?>
<!DOCTYPE svg PUBLIC "-//W3C//DTD SVG 1.1//EN" "http://www.w3.org/Graphics/SVG/1.1/DTD/svg11.dtd">
<!-- Creator: CorelDRAW X8 -->
<svg xmlns="http://www.w3.org/2000/svg" xml:space="preserve" width="155.956mm" height="279.4mm" version="1.1" style="shape-rendering:geometricPrecision; text-rendering:geometricPrecision; image-rendering:optimizeQuality; fill-rule:evenodd; clip-rule:evenodd"
viewBox="0 0 15596 27940"
 xmlns:xlink="http://www.w3.org/1999/xlink">
 <defs>
  <style type="text/css">
   <![CDATA[
    .str0 {stroke:#FFED00;stroke-width:20}
    .fil11 {fill:#FFED00}
    .fil10 {fill:#FFED00}
    .fil9 {fill:#FFED00}
    .fil12 {fill:#FFED00}
    .fil13 {fill:#FEEC00}
    .fil15 {fill:#FEEB00}
    .fil14 {fill:#FEEB00}
    .fil19 {fill:#FDEB00}
    .fil17 {fill:#FEEB00}
    .fil18 {fill:#FDEB00}
    .fil16 {fill:#FEEB00}
    .fil20 {fill:#FDEA00}
    .fil22 {fill:#FDEA00}
    .fil23 {fill:#FCE900}
    .fil21 {fill:#FDEA00}
    .fil25 {fill:#FBE900}
    .fil24 {fill:#FBE900}
    .fil26 {fill:#FBE800}
    .fil28 {fill:#FAE700}
    .fil27 {fill:#FAE700}
    .fil30 {fill:#FAE700}
    .fil31 {fill:#F9E600}
    .fil29 {fill:#FAE700}
    .fil33 {fill:#F9E600}
    .fil32 {fill:#F9E600}
    .fil35 {fill:#F8E500}
    .fil34 {fill:#F8E600}
    .fil37 {fill:#F7E502}
    .fil36 {fill:#F7E501}
    .fil39 {fill:#F6E304}
    .fil38 {fill:#F7E402}
    .fil41 {fill:#F6E306}
    .fil40 {fill:#F6E305}
    .fil43 {fill:#F5E20B}
    .fil42 {fill:#F5E209}
    .fil46 {fill:#F3E10D}
    .fil44 {fill:#F4E10B}
    .fil45 {fill:#F3E10C}
    .fil47 {fill:#F3E00E}
    .fil51 {fill:#F2DF14}
    .fil49 {fill:#F3E011}
    .fil50 {fill:#F2DF12}
    .fil48 {fill:#F3E00E}
    .fil53 {fill:#F2DF18}
    .fil52 {fill:#F2DF15}
    .fil54 {fill:#F2DE18}
    .fil55 {fill:#F1DE18}
    .fil57 {fill:#F0DD1E}
    .fil56 {fill:#F0DD1B}
    .fil58 {fill:#EFDC1E}
    .fil59 {fill:#EFDC21}
    .fil62 {fill:#EEDB25}
    .fil60 {fill:#EFDC23}
    .fil61 {fill:#EEDB23}
    .fil64 {fill:#EDDA27}
    .fil65 {fill:#EDD927}
    .fil63 {fill:#EDDA25}
    .fil66 {fill:#ECD929}
    .fil67 {fill:#ECD92B}
    .fil69 {fill:#EAD82D}
    .fil68 {fill:#EAD82B}
    .fil70 {fill:#EAD72F}
    .fil71 {fill:#E9D72F}
    .fil73 {fill:#E9D631}
    .fil72 {fill:#E9D62F}
    .fil77 {fill:#E7D534}
    .fil75 {fill:#E8D632}
    .fil76 {fill:#E7D532}
    .fil74 {fill:#E8D631}
    .fil78 {fill:#E7D534}
    .fil80 {fill:#E6D535}
    .fil81 {fill:#E6D435}
    .fil79 {fill:#E6D434}
    .fil83 {fill:#E5D437}
    .fil82 {fill:#E5D435}
    .fil85 {fill:#E3D23A}
    .fil84 {fill:#E3D238}
    .fil87 {fill:#E2D23B}
    .fil86 {fill:#E3D23A}
    .fil89 {fill:#E2D13C}
    .fil88 {fill:#E2D13B}
    .fil91 {fill:#E0D03E}
    .fil90 {fill:#E1D13C}
    .fil93 {fill:#E0D03F}
    .fil92 {fill:#E0D03E}
    .fil96 {fill:#DFCF40}
    .fil94 {fill:#E0CF3F}
    .fil95 {fill:#DFCF3F}
    .fil98 {fill:#DECF41}
    .fil97 {fill:#DECF40}
    .fil99 {fill:#DDCE41}
    .fil101 {fill:#DDCD44}
    .fil100 {fill:#DDCD43}
    .fil104 {fill:#DBCC45}
    .fil102 {fill:#DCCD44}
    .fil103 {fill:#DBCC44}
    .fil105 {fill:#DBCC45}
    .fil109 {fill:#DACB47}
    .fil107 {fill:#DACC46}
    .fil108 {fill:#DACB46}
    .fil106 {fill:#DACC45}
    .fil111 {fill:#D9CB48}
    .fil110 {fill:#D9CB47}
    .fil112 {fill:#D9CA48}
    .fil113 {fill:#D8CA48}
    .fil8 {fill:#D7C949}
    .fil114 {fill:#D7C948}
    .fil7 {fill:#9E9D24}
    .fil5 {fill:url(#id1)}
    .fil4 {fill:url(#id2)}
    .fil2 {fill:url(#id3)}
    .fil6 {fill:url(#id4)}
    .fil3 {fill:url(#id5)}
    .fil0 {fill:url(#id6)}
    .fil1 {fill:url(#id7)}
   ]]>
  </style>
     <clipPath id="id0">
      <path d="M12857 4545c987,0 1787,800 1787,1787 0,987 -800,1787 -1787,1787 -986,0 -1787,-800 -1787,-1787 0,-987 801,-1787 1787,-1787z"/>
     </clipPath>
  <linearGradient id="id1" gradientUnits="userSpaceOnUse" x1="11369" y1="18072.8" x2="11547.4" y2="12725.9">
   <stop offset="0" style="stop-opacity:1; stop-color:#9E9D24"/>
   <stop offset="0.831373" style="stop-opacity:1; stop-color:#CECE91"/>
   <stop offset="1" style="stop-opacity:1; stop-color:white"/>
  </linearGradient>
  <linearGradient id="id2" gradientUnits="userSpaceOnUse" xlink:href="#id1" x1="11369" y1="18072.8" x2="11547.4" y2="12725.9">
  </linearGradient>
  <linearGradient id="id3" gradientUnits="userSpaceOnUse" x1="9069.62" y1="18900" x2="9273.05" y2="12336">
   <stop offset="0" style="stop-opacity:1; stop-color:#9E9D24"/>
   <stop offset="0.921569" style="stop-opacity:1; stop-color:#CECE91"/>
   <stop offset="1" style="stop-opacity:1; stop-color:white"/>
  </linearGradient>
  <linearGradient id="id4" gradientUnits="userSpaceOnUse" x1="13473.5" y1="17716" x2="14536.6" y2="10256.6">
   <stop offset="0" style="stop-opacity:1; stop-color:#9E9D24"/>
   <stop offset="0.788235" style="stop-opacity:1; stop-color:#CECE91"/>
   <stop offset="1" style="stop-opacity:1; stop-color:white"/>
  </linearGradient>
  <linearGradient id="id5" gradientUnits="userSpaceOnUse" x1="9069.78" y1="18839.5" x2="9299.08" y2="12069.4">
   <stop offset="0" style="stop-opacity:1; stop-color:#9E9D24"/>
   <stop offset="0.909804" style="stop-opacity:1; stop-color:#CECE91"/>
   <stop offset="1" style="stop-opacity:1; stop-color:white"/>
  </linearGradient>
  <linearGradient id="id6" gradientUnits="userSpaceOnUse" x1="7816.42" y1="17412.3" x2="8004.77" y2="-12346.2">
   <stop offset="0" style="stop-opacity:1; stop-color:#FFD740"/>
   <stop offset="0.988235" style="stop-opacity:1; stop-color:#60ACC4"/>
   <stop offset="1" style="stop-opacity:1; stop-color:#CCCF2C"/>
  </linearGradient>
  <linearGradient id="id7" gradientUnits="userSpaceOnUse" x1="2475.05" y1="21465.9" x2="2874.21" y2="12108.6">
   <stop offset="0" style="stop-opacity:1; stop-color:#DBBB3B"/>
   <stop offset="0.309804" style="stop-opacity:1; stop-color:#8DCB32"/>
   <stop offset="1" style="stop-opacity:1; stop-color:#3FDB28"/>
  </linearGradient>
 </defs>
 <g id="Warstwa_x0020_1">
  <metadata id="CorelCorpID_0Corel-Layer"/>
  <path class="fil0" d="M15217 27992l-14839 0c-356,0 -645,-287 -645,-641l0 -27256c0,-354 289,-641 645,-641l14839 0c357,0 645,287 645,641l0 27254c2,356 -286,643 -645,643z"/>
  <path class="fil1" d="M-267 16093c0,0 4293,-823 9858,2955 5783,4113 4196,6117 4196,6117l-14054 -617 0 -8455z"/>
  <g id="_2796627363120">
   <path class="fil2" d="M8935 17198c153,445 146,924 138,1396 -2,95 -3,190 -3,306l-124 0c0,-88 2,-198 4,-308 7,-461 15,-928 -132,-1354l117 -40z"/>
   <path class="fil3" d="M9015 15367l0 0 0 1c290,0 566,74 775,224 227,163 372,408 372,737l1 0 0 0 0 0 -1 0c0,309 -124,588 -326,790 -202,201 -481,326 -790,326l0 1 0 0 0 0 0 -1c-309,0 -588,-125 -790,-326 -201,-202 -326,-481 -326,-790l-1 0 0 0 0 0 1 0c0,-322 125,-566 333,-731 194,-154 457,-230 752,-230l0 -1 0 0zm0 494l0 1 0 0 0 0 0 -1c-186,0 -342,41 -447,124 -91,72 -145,186 -145,344l1 0 0 0 0 0 -1 0c0,171 70,327 183,440 113,113 269,183 440,183l0 -1 0 0 0 0 0 1c171,0 327,-70 440,-183 113,-113 183,-269 183,-440l-1 0 0 0 0 0 1 0c0,-152 -65,-264 -167,-337 -122,-88 -296,-131 -487,-131z"/>
  </g>
  <g id="_2796627360080">
   <path class="fil4" d="M11181 17023c-30,206 -50,397 -49,585 1,188 22,375 74,574l-119 31c-55,-210 -77,-406 -78,-604 -1,-197 19,-393 50,-603l122 17z"/>
   <path class="fil5" d="M11091 15955l1 0 0 1c197,0 375,79 504,208 128,128 208,306 208,504l1 0 0 0c0,197 -52,348 -163,458 -109,109 -260,161 -457,161l0 1 0 0 0 -1c-168,0 -352,-39 -498,-122 -181,-102 -308,-265 -308,-497l-1 0 0 0 0 0 1 0c0,-198 80,-376 208,-504 129,-129 307,-208 504,-208l0 -1 0 0zm1 494l0 0 -1 0 0 0 0 0c-59,0 -114,24 -154,64 -40,41 -65,95 -65,155l1 0 0 0 0 0 -1 0c0,25 24,49 58,68 70,40 165,58 255,58l0 -1 0 0 0 1c59,0 95,-6 108,-18 11,-12 17,-48 17,-108l0 0 1 0c0,-60 -25,-114 -65,-155 -40,-40 -95,-64 -154,-64z"/>
  </g>
  <path class="fil6" d="M12190 18707c90,-345 174,-702 242,-1091 58,-330 105,-679 134,-1057l-198 -29 29 -213 137 -1019 8 -54 31 -44 157 -220 178 -250 161 228 449 -860 236 -453 163 485c69,205 126,413 167,625 13,71 25,143 34,215l161 -134 124 243 171 336 35 67 -16 75 -211 1023 -34 165 -167 8c-118,358 -210,708 -282,1052 -81,388 -136,767 -174,1142l-433 -45c40,-388 97,-783 181,-1186 85,-404 196,-817 345,-1244l48 -138 124 -6 162 -783 -13 -26 -72 60 -361 301 4 -470c2,-193 -18,-385 -54,-575 -3,-15 -6,-30 -9,-46l-358 686 -164 316 -184 -260 -85 630 170 25 -12 200c-29,477 -82,906 -153,1305 -69,396 -156,767 -251,1126l-420 -110z"/>
  <path class="fil7" d="M-307 27859c0,327 290,592 648,592l14915 0c358,0 649,-265 649,-592l0 -9711c-7667,-1287 -16127,3018 -16127,3018l-87 6693 2 0z"/>
  <g id="_2796627358096">
   <g>
    <g style="clip-path:url(#id0)">
     <polygon class="fil8" points="11070,4545 14644,4545 14644,8119 11070,8119 "/>
     <polygon id="1" class="fil9" points="12847,6321 12868,6321 12868,6342 12847,6342 "/>
     <path id="2" class="fil10" d="M12851 6325l0 14 13 0 0 -14 -13 0zm-11 -11l35 0 0 35 -35 0 0 -35z"/>
     <path id="3" class="fil10" d="M12844 6318l0 28 27 0 0 -28 -27 0zm-11 -11l49 0 0 49 -49 0 0 -49z"/>
     <path id="4" class="fil11" d="M12837 6311l0 42 41 0 0 -42 -41 0zm-11 -11l63 0 0 63 -63 0 0 -63z"/>
     <path id="5" class="fil12" d="M12830 6304l0 56 55 0 0 -56 -55 0zm-11 -11l77 0 0 77 -77 0 0 -77z"/>
     <path id="6" class="fil13" d="M12823 6297l0 70 69 0 0 -70 -69 0zm-11 -11l91 0 0 91 -91 0 0 -91z"/>
     <path id="7" class="fil13" d="M12816 6290l0 84 83 0 0 -84 -83 0zm-11 -11l105 0 0 105 -105 0 0 -105z"/>
     <path id="8" class="fil14" d="M12809 6283l0 98 97 0 0 -98 -97 0zm-11 -11l119 0 0 119 -119 0 0 -119z"/>
     <path id="9" class="fil15" d="M12802 6276l0 112 111 0 0 -112 -111 0zm-11 -11l133 0 0 133 -133 0 0 -133z"/>
     <path id="10" class="fil15" d="M12795 6269l0 126 125 0 0 -126 -125 0zm-11 -11l147 0 0 147 -147 0 0 -147z"/>
     <path id="11" class="fil15" d="M12788 6262l0 140 139 0 0 -140 -139 0zm-11 -11l161 0 0 161 -161 0 0 -161z"/>
     <path id="12" class="fil15" d="M12781 6255l0 153 153 0 0 -153 -153 0zm-11 -11l175 0 0 175 -175 0 0 -175z"/>
     <path id="13" class="fil16" d="M12774 6248l0 167 167 0 0 -167 -167 0zm-11 -11l189 0 0 189 -189 0 0 -189z"/>
     <path id="14" class="fil17" d="M12767 6241l0 181 181 0 0 -181 -181 0zm-11 -11l203 0 0 203 -203 0 0 -203z"/>
     <path id="15" class="fil17" d="M12760 6234l0 195 195 0 0 -195 -195 0zm-11 -10l217 0 0 216 -217 0 0 -216z"/>
     <path id="16" class="fil18" d="M12753 6227l0 209 209 0 0 -209 -209 0zm-11 -10l231 0 0 230 -231 0 0 -230z"/>
     <path id="17" class="fil18" d="M12746 6220l0 223 223 0 0 -223 -223 0zm-11 -10l245 0 0 244 -245 0 0 -244z"/>
     <path id="18" class="fil18" d="M12739 6213l0 237 237 0 0 -237 -237 0zm-11 -10l259 0 0 258 -259 0 0 -258z"/>
     <path id="19" class="fil19" d="M12732 6206l0 251 251 0 0 -251 -251 0zm-11 -10l273 0 0 272 -273 0 0 -272z"/>
     <path id="20" class="fil19" d="M12725 6199l0 265 265 0 0 -265 -265 0zm-11 -10l287 0 0 286 -287 0 0 -286z"/>
     <path id="21" class="fil20" d="M12718 6192l0 279 279 0 0 -279 -279 0zm-11 -10l301 0 0 300 -301 0 0 -300z"/>
     <path id="22" class="fil21" d="M12711 6185l0 293 293 0 0 -293 -293 0zm-11 -10l315 0 0 314 -315 0 0 -314z"/>
     <path id="23" class="fil21" d="M12704 6178l0 307 307 0 0 -307 -307 0zm-11 -10l329 0 0 328 -329 0 0 -328z"/>
     <path id="24" class="fil22" d="M12697 6171l0 321 321 0 0 -321 -321 0zm-11 -10l343 0 0 342 -343 0 0 -342z"/>
     <path id="25" class="fil22" d="M12690 6164l0 335 335 0 0 -335 -335 0zm-11 -10l356 0 0 356 -356 0 0 -356z"/>
     <path id="26" class="fil23" d="M12683 6157l0 349 349 0 0 -349 -349 0zm-10 -10l369 0 0 370 -369 0 0 -370z"/>
     <path id="27" class="fil23" d="M12676 6150l0 363 363 0 0 -363 -363 0zm-10 -10l383 0 0 384 -383 0 0 -384z"/>
     <path id="28" class="fil23" d="M12669 6143l0 377 377 0 0 -377 -377 0zm-10 -10l397 0 0 398 -397 0 0 -398z"/>
     <path id="29" class="fil24" d="M12662 6136l0 391 391 0 0 -391 -391 0zm-10 -10l411 0 0 412 -411 0 0 -412z"/>
     <path id="30" class="fil25" d="M12655 6129l0 405 405 0 0 -405 -405 0zm-10 -10l425 0 0 426 -425 0 0 -426z"/>
     <path id="31" class="fil25" d="M12648 6122l0 419 419 0 0 -419 -419 0zm-10 -10l439 0 0 440 -439 0 0 -440z"/>
     <path id="32" class="fil25" d="M12641 6115l0 433 433 0 0 -433 -433 0zm-10 -10l453 0 0 454 -453 0 0 -454z"/>
     <path id="33" class="fil25" d="M12634 6108l0 447 447 0 0 -447 -447 0zm-10 -10l467 0 0 468 -467 0 0 -468z"/>
     <path id="34" class="fil25" d="M12627 6101l0 461 461 0 0 -461 -461 0zm-10 -10l481 0 0 482 -481 0 0 -482z"/>
     <path id="35" class="fil26" d="M12620 6094l0 475 475 0 0 -475 -475 0zm-10 -10l495 0 0 496 -495 0 0 -496z"/>
     <path id="36" class="fil27" d="M12613 6087l0 489 489 0 0 -489 -489 0zm-10 -10l509 0 0 509 -509 0 0 -509z"/>
     <path id="37" class="fil27" d="M12606 6080l0 503 503 0 0 -503 -503 0zm-10 -10l523 0 0 523 -523 0 0 -523z"/>
     <path id="38" class="fil27" d="M12599 6073l0 517 517 0 0 -517 -517 0zm-10 -10l537 0 0 537 -537 0 0 -537z"/>
     <path id="39" class="fil27" d="M12592 6066l0 531 531 0 0 -531 -531 0zm-10 -10l551 0 0 551 -551 0 0 -551z"/>
     <path id="40" class="fil28" d="M12585 6059l0 545 545 0 0 -545 -545 0zm-10 -10l565 0 0 565 -565 0 0 -565z"/>
     <path id="41" class="fil28" d="M12578 6052l0 559 559 0 0 -559 -559 0zm-10 -10l579 0 0 579 -579 0 0 -579z"/>
     <path id="42" class="fil28" d="M12571 6046l0 572 573 0 0 -572 -573 0zm-10 -11l593 0 0 593 -593 0 0 -593z"/>
     <path id="43" class="fil28" d="M12564 6039l0 586 587 0 0 -586 -587 0zm-10 -11l607 0 0 607 -607 0 0 -607z"/>
     <path id="44" class="fil29" d="M12557 6032l0 600 601 0 0 -600 -601 0zm-10 -11l621 0 0 621 -621 0 0 -621z"/>
     <path id="45" class="fil30" d="M12550 6025l0 614 615 0 0 -614 -615 0zm-10 -11l635 0 0 635 -635 0 0 -635z"/>
     <path id="46" class="fil31" d="M12543 6018l0 628 629 0 0 -628 -629 0zm-10 -11l649 0 0 649 -649 0 0 -649z"/>
     <path id="47" class="fil31" d="M12536 6011l0 642 643 0 0 -642 -643 0zm-10 -11l663 0 0 663 -663 0 0 -663z"/>
     <path id="48" class="fil32" d="M12529 6004l0 656 657 0 0 -656 -657 0zm-10 -11l677 0 0 677 -677 0 0 -677z"/>
     <path id="49" class="fil32" d="M12522 5997l0 670 671 0 0 -670 -671 0zm-10 -11l691 0 0 691 -691 0 0 -691z"/>
     <path id="50" class="fil33" d="M12515 5990l0 684 685 0 0 -684 -685 0zm-10 -11l705 0 0 705 -705 0 0 -705z"/>
     <path id="51" class="fil33" d="M12508 5983l0 698 699 0 0 -698 -699 0zm-10 -11l719 0 0 719 -719 0 0 -719z"/>
     <path id="52" class="fil34" d="M12501 5976l0 712 712 0 0 -712 -712 0zm-10 -11l733 0 0 733 -733 0 0 -733z"/>
     <path id="53" class="fil34" d="M12495 5969l0 726 725 0 0 -726 -725 0zm-11 -11l747 0 0 747 -747 0 0 -747z"/>
     <path id="54" class="fil34" d="M12488 5962l0 740 739 0 0 -740 -739 0zm-11 -11l761 0 0 761 -761 0 0 -761z"/>
     <path id="55" class="fil35" d="M12481 5955l0 754 753 0 0 -754 -753 0zm-11 -11l775 0 0 775 -775 0 0 -775z"/>
     <path id="56" class="fil35" d="M12474 5948l0 768 767 0 0 -768 -767 0zm-11 -11l789 0 0 789 -789 0 0 -789z"/>
     <path id="57" class="fil35" d="M12467 5941l0 782 781 0 0 -782 -781 0zm-11 -11l803 0 0 803 -803 0 0 -803z"/>
     <path id="58" class="fil35" d="M12460 5934l0 796 795 0 0 -796 -795 0zm-11 -11l817 0 0 817 -817 0 0 -817z"/>
     <path id="59" class="fil36" d="M12453 5927l0 810 809 0 0 -810 -809 0zm-11 -11l831 0 0 831 -831 0 0 -831z"/>
     <path id="60" class="fil37" d="M12446 5920l0 824 823 0 0 -824 -823 0zm-11 -11l845 0 0 845 -845 0 0 -845z"/>
     <path id="61" class="fil37" d="M12439 5913l0 838 837 0 0 -838 -837 0zm-11 -11l859 0 0 859 -859 0 0 -859z"/>
     <path id="62" class="fil38" d="M12432 5906l0 852 851 0 0 -852 -851 0zm-11 -11l873 0 0 873 -873 0 0 -873z"/>
     <path id="63" class="fil38" d="M12425 5899l0 865 865 0 0 -865 -865 0zm-11 -11l887 0 0 887 -887 0 0 -887z"/>
     <path id="64" class="fil38" d="M12418 5892l0 879 879 0 0 -879 -879 0zm-11 -11l901 0 0 901 -901 0 0 -901z"/>
     <path id="65" class="fil39" d="M12411 5885l0 893 893 0 0 -893 -893 0zm-11 -11l915 0 0 915 -915 0 0 -915z"/>
     <path id="66" class="fil39" d="M12404 5878l0 907 907 0 0 -907 -907 0zm-11 -10l929 0 0 928 -929 0 0 -928z"/>
     <path id="67" class="fil40" d="M12397 5871l0 921 921 0 0 -921 -921 0zm-11 -10l943 0 0 942 -943 0 0 -942z"/>
     <path id="68" class="fil40" d="M12390 5864l0 935 935 0 0 -935 -935 0zm-11 -10l957 0 0 956 -957 0 0 -956z"/>
     <path id="69" class="fil40" d="M12383 5857l0 949 949 0 0 -949 -949 0zm-11 -10l971 0 0 970 -971 0 0 -970z"/>
     <path id="70" class="fil41" d="M12376 5850l0 963 963 0 0 -963 -963 0zm-11 -10l985 0 0 984 -985 0 0 -984z"/>
     <path id="71" class="fil41" d="M12369 5843l0 977 977 0 0 -977 -977 0zm-11 -10l999 0 0 998 -999 0 0 -998z"/>
     <path id="72" class="fil41" d="M12362 5836l0 991 991 0 0 -991 -991 0zm-11 -10l1013 0 0 1012 -1013 0 0 -1012z"/>
     <path id="73" class="fil41" d="M12355 5829l0 1005 1005 0 0 -1005 -1005 0zm-11 -10l1027 0 0 1026 -1027 0 0 -1026z"/>
     <path id="74" class="fil41" d="M12348 5822l0 1019 1019 0 0 -1019 -1019 0zm-11 -10l1041 0 0 1040 -1041 0 0 -1040z"/>
     <path id="75" class="fil42" d="M12341 5815l0 1033 1033 0 0 -1033 -1033 0zm-11 -10l1055 0 0 1054 -1055 0 0 -1054z"/>
     <path id="76" class="fil42" d="M12334 5808l0 1047 1047 0 0 -1047 -1047 0zm-11 -10l1068 0 0 1068 -1068 0 0 -1068z"/>
     <path id="77" class="fil42" d="M12327 5801l0 1061 1061 0 0 -1061 -1061 0zm-10 -10l1081 0 0 1082 -1081 0 0 -1082z"/>
     <path id="78" class="fil42" d="M12320 5794l0 1075 1075 0 0 -1075 -1075 0zm-10 -10l1095 0 0 1096 -1095 0 0 -1096z"/>
     <path id="79" class="fil42" d="M12313 5787l0 1089 1089 0 0 -1089 -1089 0zm-10 -10l1109 0 0 1110 -1109 0 0 -1110z"/>
     <path id="80" class="fil42" d="M12306 5780l0 1103 1103 0 0 -1103 -1103 0zm-10 -10l1123 0 0 1124 -1123 0 0 -1124z"/>
     <path id="81" class="fil43" d="M12299 5773l0 1117 1117 0 0 -1117 -1117 0zm-10 -10l1137 0 0 1138 -1137 0 0 -1138z"/>
     <path id="82" class="fil43" d="M12292 5766l0 1131 1131 0 0 -1131 -1131 0zm-10 -10l1151 0 0 1152 -1151 0 0 -1152z"/>
     <path id="83" class="fil44" d="M12285 5759l0 1145 1145 0 0 -1145 -1145 0zm-10 -10l1165 0 0 1166 -1165 0 0 -1166z"/>
     <path id="84" class="fil44" d="M12278 5752l0 1159 1159 0 0 -1159 -1159 0zm-10 -10l1179 0 0 1180 -1179 0 0 -1180z"/>
     <path id="85" class="fil45" d="M12271 5745l0 1173 1173 0 0 -1173 -1173 0zm-10 -10l1193 0 0 1194 -1193 0 0 -1194z"/>
     <path id="86" class="fil46" d="M12264 5738l0 1187 1187 0 0 -1187 -1187 0zm-10 -10l1207 0 0 1208 -1207 0 0 -1208z"/>
     <path id="87" class="fil46" d="M12257 5731l0 1201 1201 0 0 -1201 -1201 0zm-10 -10l1221 0 0 1221 -1221 0 0 -1221z"/>
     <path id="88" class="fil46" d="M12250 5724l0 1215 1215 0 0 -1215 -1215 0zm-10 -10l1235 0 0 1235 -1235 0 0 -1235z"/>
     <path id="89" class="fil47" d="M12243 5717l0 1229 1229 0 0 -1229 -1229 0zm-10 -10l1249 0 0 1249 -1249 0 0 -1249z"/>
     <path id="90" class="fil48" d="M12236 5710l0 1243 1243 0 0 -1243 -1243 0zm-10 -10l1263 0 0 1263 -1263 0 0 -1263z"/>
     <path id="91" class="fil49" d="M12229 5703l0 1257 1257 0 0 -1257 -1257 0zm-10 -10l1277 0 0 1277 -1277 0 0 -1277z"/>
     <path id="92" class="fil49" d="M12222 5696l0 1271 1271 0 0 -1271 -1271 0zm-10 -10l1291 0 0 1291 -1291 0 0 -1291z"/>
     <path id="93" class="fil49" d="M12215 5690l0 1284 1285 0 0 -1284 -1285 0zm-10 -11l1305 0 0 1305 -1305 0 0 -1305z"/>
     <path id="94" class="fil49" d="M12208 5683l0 1298 1299 0 0 -1298 -1299 0zm-10 -11l1319 0 0 1319 -1319 0 0 -1319z"/>
     <path id="95" class="fil50" d="M12201 5676l0 1312 1313 0 0 -1312 -1313 0zm-10 -11l1333 0 0 1333 -1333 0 0 -1333z"/>
     <path id="96" class="fil51" d="M12194 5669l0 1326 1327 0 0 -1326 -1327 0zm-10 -11l1347 0 0 1347 -1347 0 0 -1347z"/>
     <path id="97" class="fil51" d="M12187 5662l0 1340 1341 0 0 -1340 -1341 0zm-10 -11l1361 0 0 1361 -1361 0 0 -1361z"/>
     <path id="98" class="fil52" d="M12180 5655l0 1354 1355 0 0 -1354 -1355 0zm-10 -11l1375 0 0 1375 -1375 0 0 -1375z"/>
     <path id="99" class="fil52" d="M12173 5648l0 1368 1369 0 0 -1368 -1369 0zm-10 -11l1389 0 0 1389 -1389 0 0 -1389z"/>
     <path id="100" class="fil52" d="M12166 5641l0 1382 1383 0 0 -1382 -1383 0zm-10 -11l1403 0 0 1403 -1403 0 0 -1403z"/>
     <path id="101" class="fil53" d="M12159 5634l0 1396 1397 0 0 -1396 -1397 0zm-10 -11l1417 0 0 1417 -1417 0 0 -1417z"/>
     <path id="102" class="fil54" d="M12152 5627l0 1410 1411 0 0 -1410 -1411 0zm-10 -11l1431 0 0 1431 -1431 0 0 -1431z"/>
     <path id="103" class="fil54" d="M12145 5620l0 1424 1425 0 0 -1424 -1425 0zm-10 -11l1445 0 0 1445 -1445 0 0 -1445z"/>
     <path id="104" class="fil55" d="M12139 5613l0 1438 1437 0 0 -1438 -1437 0zm-11 -11l1459 0 0 1459 -1459 0 0 -1459z"/>
     <path id="105" class="fil55" d="M12132 5606l0 1452 1451 0 0 -1452 -1451 0zm-11 -11l1473 0 0 1473 -1473 0 0 -1473z"/>
     <path id="106" class="fil56" d="M12125 5599l0 1466 1465 0 0 -1466 -1465 0zm-11 -11l1487 0 0 1487 -1487 0 0 -1487z"/>
     <path id="107" class="fil56" d="M12118 5592l0 1480 1479 0 0 -1480 -1479 0zm-11 -11l1501 0 0 1501 -1501 0 0 -1501z"/>
     <path id="108" class="fil56" d="M12111 5585l0 1494 1493 0 0 -1494 -1493 0zm-11 -11l1515 0 0 1515 -1515 0 0 -1515z"/>
     <path id="109" class="fil56" d="M12104 5578l0 1508 1507 0 0 -1508 -1507 0zm-11 -11l1529 0 0 1529 -1529 0 0 -1529z"/>
     <path id="110" class="fil56" d="M12097 5571l0 1522 1521 0 0 -1522 -1521 0zm-11 -11l1543 0 0 1543 -1543 0 0 -1543z"/>
     <path id="111" class="fil57" d="M12090 5564l0 1536 1535 0 0 -1536 -1535 0zm-11 -11l1557 0 0 1557 -1557 0 0 -1557z"/>
     <path id="112" class="fil57" d="M12083 5557l0 1550 1549 0 0 -1550 -1549 0zm-11 -11l1571 0 0 1571 -1571 0 0 -1571z"/>
     <path id="113" class="fil57" d="M12076 5550l0 1564 1563 0 0 -1564 -1563 0zm-11 -11l1585 0 0 1585 -1585 0 0 -1585z"/>
     <path id="114" class="fil58" d="M12069 5543l0 1577 1577 0 0 -1577 -1577 0zm-11 -11l1599 0 0 1599 -1599 0 0 -1599z"/>
     <path id="115" class="fil58" d="M12062 5536l0 1591 1591 0 0 -1591 -1591 0zm-11 -11l1613 0 0 1613 -1613 0 0 -1613z"/>
     <path id="116" class="fil59" d="M12055 5529l0 1605 1605 0 0 -1605 -1605 0zm-11 -11l1627 0 0 1627 -1627 0 0 -1627z"/>
     <path id="117" class="fil59" d="M12048 5522l0 1619 1619 0 0 -1619 -1619 0zm-11 -11l1641 0 0 1641 -1641 0 0 -1641z"/>
     <path id="118" class="fil59" d="M12041 5515l0 1633 1633 0 0 -1633 -1633 0zm-11 -10l1655 0 0 1654 -1655 0 0 -1654z"/>
     <path id="119" class="fil59" d="M12034 5508l0 1647 1647 0 0 -1647 -1647 0zm-11 -10l1669 0 0 1668 -1669 0 0 -1668z"/>
     <path id="120" class="fil59" d="M12027 5501l0 1661 1661 0 0 -1661 -1661 0zm-11 -10l1683 0 0 1682 -1683 0 0 -1682z"/>
     <path id="121" class="fil60" d="M12020 5494l0 1675 1675 0 0 -1675 -1675 0zm-11 -10l1697 0 0 1696 -1697 0 0 -1696z"/>
     <path id="122" class="fil60" d="M12013 5487l0 1689 1689 0 0 -1689 -1689 0zm-11 -10l1711 0 0 1710 -1711 0 0 -1710z"/>
     <path id="123" class="fil60" d="M12006 5480l0 1703 1703 0 0 -1703 -1703 0zm-11 -10l1725 0 0 1724 -1725 0 0 -1724z"/>
     <path id="124" class="fil61" d="M11999 5473l0 1717 1717 0 0 -1717 -1717 0zm-11 -10l1739 0 0 1738 -1739 0 0 -1738z"/>
     <path id="125" class="fil61" d="M11992 5466l0 1731 1731 0 0 -1731 -1731 0zm-11 -10l1753 0 0 1752 -1753 0 0 -1752z"/>
     <path id="126" class="fil62" d="M11985 5459l0 1745 1745 0 0 -1745 -1745 0zm-11 -10l1767 0 0 1766 -1767 0 0 -1766z"/>
     <path id="127" class="fil62" d="M11978 5452l0 1759 1759 0 0 -1759 -1759 0zm-11 -10l1781 0 0 1780 -1781 0 0 -1780z"/>
     <path id="128" class="fil62" d="M11971 5445l0 1773 1773 0 0 -1773 -1773 0zm-10 -10l1793 0 0 1794 -1793 0 0 -1794z"/>
     <path id="129" class="fil63" d="M11964 5438l0 1787 1787 0 0 -1787 -1787 0zm-10 -10l1807 0 0 1808 -1807 0 0 -1808z"/>
     <path id="130" class="fil63" d="M11957 5431l0 1801 1801 0 0 -1801 -1801 0zm-10 -10l1821 0 0 1822 -1821 0 0 -1822z"/>
     <path id="131" class="fil63" d="M11950 5424l0 1815 1815 0 0 -1815 -1815 0zm-10 -10l1835 0 0 1836 -1835 0 0 -1836z"/>
     <path id="132" class="fil64" d="M11943 5417l0 1829 1829 0 0 -1829 -1829 0zm-10 -10l1849 0 0 1850 -1849 0 0 -1850z"/>
     <path id="133" class="fil64" d="M11936 5410l0 1843 1843 0 0 -1843 -1843 0zm-10 -10l1863 0 0 1864 -1863 0 0 -1864z"/>
     <path id="134" class="fil65" d="M11929 5403l0 1857 1857 0 0 -1857 -1857 0zm-10 -10l1877 0 0 1878 -1877 0 0 -1878z"/>
     <path id="135" class="fil65" d="M11922 5396l0 1871 1871 0 0 -1871 -1871 0zm-10 -10l1891 0 0 1892 -1891 0 0 -1892z"/>
     <path id="136" class="fil65" d="M11915 5389l0 1885 1885 0 0 -1885 -1885 0zm-10 -10l1905 0 0 1906 -1905 0 0 -1906z"/>
     <path id="137" class="fil66" d="M11908 5382l0 1899 1899 0 0 -1899 -1899 0zm-10 -10l1919 0 0 1920 -1919 0 0 -1920z"/>
     <path id="138" class="fil66" d="M11901 5375l0 1913 1913 0 0 -1913 -1913 0zm-10 -10l1933 0 0 1934 -1933 0 0 -1934z"/>
     <path id="139" class="fil66" d="M11894 5368l0 1927 1927 0 0 -1927 -1927 0zm-10 -10l1947 0 0 1947 -1947 0 0 -1947z"/>
     <path id="140" class="fil66" d="M11887 5361l0 1941 1941 0 0 -1941 -1941 0zm-10 -10l1961 0 0 1961 -1961 0 0 -1961z"/>
     <path id="141" class="fil66" d="M11880 5354l0 1955 1955 0 0 -1955 -1955 0zm-10 -10l1975 0 0 1975 -1975 0 0 -1975z"/>
     <path id="142" class="fil67" d="M11873 5347l0 1969 1969 0 0 -1969 -1969 0zm-10 -10l1989 0 0 1989 -1989 0 0 -1989z"/>
     <path id="143" class="fil67" d="M11866 5340l0 1983 1983 0 0 -1983 -1983 0zm-10 -10l2003 0 0 2003 -2003 0 0 -2003z"/>
     <path id="144" class="fil68" d="M11859 5333l0 1997 1997 0 0 -1997 -1997 0zm-10 -10l2017 0 0 2017 -2017 0 0 -2017z"/>
     <path id="145" class="fil68" d="M11852 5327l0 2010 2011 0 0 -2010 -2011 0zm-10 -11l2031 0 0 2031 -2031 0 0 -2031z"/>
     <path id="146" class="fil68" d="M11845 5320l0 2024 2025 0 0 -2024 -2025 0zm-10 -11l2045 0 0 2045 -2045 0 0 -2045z"/>
     <path id="147" class="fil69" d="M11838 5313l0 2038 2039 0 0 -2038 -2039 0zm-10 -11l2059 0 0 2059 -2059 0 0 -2059z"/>
     <path id="148" class="fil69" d="M11831 5306l0 2052 2053 0 0 -2052 -2053 0zm-10 -11l2073 0 0 2073 -2073 0 0 -2073z"/>
     <path id="149" class="fil69" d="M11824 5299l0 2066 2067 0 0 -2066 -2067 0zm-10 -11l2087 0 0 2087 -2087 0 0 -2087z"/>
     <path id="150" class="fil69" d="M11817 5292l0 2080 2081 0 0 -2080 -2081 0zm-10 -11l2101 0 0 2101 -2101 0 0 -2101z"/>
     <path id="151" class="fil69" d="M11810 5285l0 2094 2095 0 0 -2094 -2095 0zm-10 -11l2115 0 0 2115 -2115 0 0 -2115z"/>
     <path id="152" class="fil70" d="M11803 5278l0 2108 2109 0 0 -2108 -2109 0zm-10 -11l2129 0 0 2129 -2129 0 0 -2129z"/>
     <path id="153" class="fil70" d="M11796 5271l0 2122 2123 0 0 -2122 -2123 0zm-10 -11l2143 0 0 2143 -2143 0 0 -2143z"/>
     <path id="154" class="fil71" d="M11789 5264l0 2136 2137 0 0 -2136 -2137 0zm-10 -11l2157 0 0 2157 -2157 0 0 -2157z"/>
     <path id="155" class="fil71" d="M11782 5257l0 2150 2150 0 0 -2150 -2150 0zm-10 -11l2171 0 0 2171 -2171 0 0 -2171z"/>
     <path id="156" class="fil72" d="M11776 5250l0 2164 2163 0 0 -2164 -2163 0zm-11 -11l2185 0 0 2185 -2185 0 0 -2185z"/>
     <path id="157" class="fil73" d="M11769 5243l0 2178 2177 0 0 -2178 -2177 0zm-11 -11l2199 0 0 2199 -2199 0 0 -2199z"/>
     <path id="158" class="fil73" d="M11762 5236l0 2192 2191 0 0 -2192 -2191 0zm-11 -11l2213 0 0 2213 -2213 0 0 -2213z"/>
     <path id="159" class="fil73" d="M11755 5229l0 2206 2205 0 0 -2206 -2205 0zm-11 -11l2227 0 0 2227 -2227 0 0 -2227z"/>
     <path id="160" class="fil74" d="M11748 5222l0 2220 2219 0 0 -2220 -2219 0zm-11 -11l2241 0 0 2241 -2241 0 0 -2241z"/>
     <path id="161" class="fil74" d="M11741 5215l0 2234 2233 0 0 -2234 -2233 0zm-11 -11l2255 0 0 2255 -2255 0 0 -2255z"/>
     <path id="162" class="fil75" d="M11734 5208l0 2248 2247 0 0 -2248 -2247 0zm-11 -11l2269 0 0 2269 -2269 0 0 -2269z"/>
     <path id="163" class="fil76" d="M11727 5201l0 2262 2261 0 0 -2262 -2261 0zm-11 -11l2283 0 0 2283 -2283 0 0 -2283z"/>
     <path id="164" class="fil76" d="M11720 5194l0 2276 2275 0 0 -2276 -2275 0zm-11 -11l2297 0 0 2297 -2297 0 0 -2297z"/>
     <path id="165" class="fil76" d="M11713 5187l0 2290 2289 0 0 -2290 -2289 0zm-11 -11l2311 0 0 2311 -2311 0 0 -2311z"/>
     <path id="166" class="fil76" d="M11706 5180l0 2303 2303 0 0 -2303 -2303 0zm-11 -11l2325 0 0 2325 -2325 0 0 -2325z"/>
     <path id="167" class="fil77" d="M11699 5173l0 2317 2317 0 0 -2317 -2317 0zm-11 -11l2339 0 0 2339 -2339 0 0 -2339z"/>
     <path id="168" class="fil78" d="M11692 5166l0 2331 2331 0 0 -2331 -2331 0zm-11 -11l2353 0 0 2353 -2353 0 0 -2353z"/>
     <path id="169" class="fil79" d="M11685 5159l0 2345 2345 0 0 -2345 -2345 0zm-11 -10l2367 0 0 2366 -2367 0 0 -2366z"/>
     <path id="170" class="fil79" d="M11678 5152l0 2359 2359 0 0 -2359 -2359 0zm-11 -10l2381 0 0 2380 -2381 0 0 -2380z"/>
     <path id="171" class="fil79" d="M11671 5145l0 2373 2373 0 0 -2373 -2373 0zm-11 -10l2395 0 0 2394 -2395 0 0 -2394z"/>
     <path id="172" class="fil80" d="M11664 5138l0 2387 2387 0 0 -2387 -2387 0zm-11 -10l2409 0 0 2408 -2409 0 0 -2408z"/>
     <path id="173" class="fil81" d="M11657 5131l0 2401 2401 0 0 -2401 -2401 0zm-11 -10l2423 0 0 2422 -2423 0 0 -2422z"/>
     <path id="174" class="fil81" d="M11650 5124l0 2415 2415 0 0 -2415 -2415 0zm-11 -10l2437 0 0 2436 -2437 0 0 -2436z"/>
     <path id="175" class="fil82" d="M11643 5117l0 2429 2429 0 0 -2429 -2429 0zm-11 -10l2451 0 0 2450 -2451 0 0 -2450z"/>
     <path id="176" class="fil82" d="M11636 5110l0 2443 2443 0 0 -2443 -2443 0zm-11 -10l2465 0 0 2464 -2465 0 0 -2464z"/>
     <path id="177" class="fil83" d="M11629 5103l0 2457 2457 0 0 -2457 -2457 0zm-11 -10l2479 0 0 2478 -2479 0 0 -2478z"/>
     <path id="178" class="fil83" d="M11622 5096l0 2471 2471 0 0 -2471 -2471 0zm-11 -10l2493 0 0 2492 -2493 0 0 -2492z"/>
     <path id="179" class="fil83" d="M11615 5089l0 2485 2485 0 0 -2485 -2485 0zm-11 -10l2506 0 0 2506 -2506 0 0 -2506z"/>
     <path id="180" class="fil83" d="M11608 5082l0 2499 2499 0 0 -2499 -2499 0zm-10 -10l2519 0 0 2520 -2519 0 0 -2520z"/>
     <path id="181" class="fil83" d="M11601 5075l0 2513 2513 0 0 -2513 -2513 0zm-10 -10l2533 0 0 2534 -2533 0 0 -2534z"/>
     <path id="182" class="fil83" d="M11594 5068l0 2527 2527 0 0 -2527 -2527 0zm-10 -10l2547 0 0 2548 -2547 0 0 -2548z"/>
     <path id="183" class="fil84" d="M11587 5061l0 2541 2541 0 0 -2541 -2541 0zm-10 -10l2561 0 0 2562 -2561 0 0 -2562z"/>
     <path id="184" class="fil84" d="M11580 5054l0 2555 2555 0 0 -2555 -2555 0zm-10 -10l2575 0 0 2576 -2575 0 0 -2576z"/>
     <path id="185" class="fil84" d="M11573 5047l0 2569 2569 0 0 -2569 -2569 0zm-10 -10l2589 0 0 2590 -2589 0 0 -2590z"/>
     <path id="186" class="fil84" d="M11566 5040l0 2583 2583 0 0 -2583 -2583 0zm-10 -10l2603 0 0 2604 -2603 0 0 -2604z"/>
     <path id="187" class="fil84" d="M11559 5033l0 2597 2597 0 0 -2597 -2597 0zm-10 -10l2617 0 0 2618 -2617 0 0 -2618z"/>
     <path id="188" class="fil85" d="M11552 5026l0 2611 2611 0 0 -2611 -2611 0zm-10 -10l2631 0 0 2632 -2631 0 0 -2632z"/>
     <path id="189" class="fil85" d="M11545 5019l0 2625 2625 0 0 -2625 -2625 0zm-10 -10l2645 0 0 2646 -2645 0 0 -2646z"/>
     <path id="190" class="fil85" d="M11538 5012l0 2639 2639 0 0 -2639 -2639 0zm-10 -10l2659 0 0 2659 -2659 0 0 -2659z"/>
     <path id="191" class="fil86" d="M11531 5005l0 2653 2653 0 0 -2653 -2653 0zm-10 -10l2673 0 0 2673 -2673 0 0 -2673z"/>
     <path id="192" class="fil86" d="M11524 4998l0 2667 2667 0 0 -2667 -2667 0zm-10 -10l2687 0 0 2687 -2687 0 0 -2687z"/>
     <path id="193" class="fil87" d="M11517 4991l0 2681 2681 0 0 -2681 -2681 0zm-10 -10l2701 0 0 2701 -2701 0 0 -2701z"/>
     <path id="194" class="fil87" d="M11510 4984l0 2695 2695 0 0 -2695 -2695 0zm-10 -10l2715 0 0 2715 -2715 0 0 -2715z"/>
     <path id="195" class="fil87" d="M11503 4977l0 2709 2709 0 0 -2709 -2709 0zm-10 -10l2729 0 0 2729 -2729 0 0 -2729z"/>
     <path id="196" class="fil88" d="M11496 4971l0 2722 2723 0 0 -2722 -2723 0zm-10 -11l2743 0 0 2743 -2743 0 0 -2743z"/>
     <path id="197" class="fil88" d="M11489 4964l0 2736 2737 0 0 -2736 -2737 0zm-10 -11l2757 0 0 2757 -2757 0 0 -2757z"/>
     <path id="198" class="fil89" d="M11482 4957l0 2750 2751 0 0 -2750 -2751 0zm-10 -11l2771 0 0 2771 -2771 0 0 -2771z"/>
     <path id="199" class="fil90" d="M11475 4950l0 2764 2765 0 0 -2764 -2765 0zm-10 -11l2785 0 0 2785 -2785 0 0 -2785z"/>
     <path id="200" class="fil90" d="M11468 4943l0 2778 2779 0 0 -2778 -2779 0zm-10 -11l2799 0 0 2799 -2799 0 0 -2799z"/>
     <path id="201" class="fil90" d="M11461 4936l0 2792 2793 0 0 -2792 -2793 0zm-10 -11l2813 0 0 2813 -2813 0 0 -2813z"/>
     <path id="202" class="fil90" d="M11454 4929l0 2806 2807 0 0 -2806 -2807 0zm-10 -11l2827 0 0 2827 -2827 0 0 -2827z"/>
     <path id="203" class="fil91" d="M11447 4922l0 2820 2821 0 0 -2820 -2821 0zm-10 -11l2841 0 0 2841 -2841 0 0 -2841z"/>
     <path id="204" class="fil91" d="M11440 4915l0 2834 2835 0 0 -2834 -2835 0zm-10 -11l2855 0 0 2855 -2855 0 0 -2855z"/>
     <path id="205" class="fil91" d="M11433 4908l0 2848 2849 0 0 -2848 -2849 0zm-10 -11l2869 0 0 2869 -2869 0 0 -2869z"/>
     <path id="206" class="fil92" d="M11426 4901l0 2862 2862 0 0 -2862 -2862 0zm-10 -11l2883 0 0 2883 -2883 0 0 -2883z"/>
     <path id="207" class="fil92" d="M11420 4894l0 2876 2875 0 0 -2876 -2875 0zm-11 -11l2897 0 0 2897 -2897 0 0 -2897z"/>
     <path id="208" class="fil93" d="M11413 4887l0 2890 2889 0 0 -2890 -2889 0zm-11 -11l2911 0 0 2911 -2911 0 0 -2911z"/>
     <path id="209" class="fil93" d="M11406 4880l0 2904 2903 0 0 -2904 -2903 0zm-11 -11l2925 0 0 2925 -2925 0 0 -2925z"/>
     <path id="210" class="fil94" d="M11399 4873l0 2918 2917 0 0 -2918 -2917 0zm-11 -11l2939 0 0 2939 -2939 0 0 -2939z"/>
     <path id="211" class="fil94" d="M11392 4866l0 2932 2931 0 0 -2932 -2931 0zm-11 -11l2953 0 0 2953 -2953 0 0 -2953z"/>
     <path id="212" class="fil95" d="M11385 4859l0 2946 2945 0 0 -2946 -2945 0zm-11 -11l2967 0 0 2967 -2967 0 0 -2967z"/>
     <path id="213" class="fil96" d="M11378 4852l0 2960 2959 0 0 -2960 -2959 0zm-11 -11l2981 0 0 2981 -2981 0 0 -2981z"/>
     <path id="214" class="fil97" d="M11371 4845l0 2974 2973 0 0 -2974 -2973 0zm-11 -11l2995 0 0 2995 -2995 0 0 -2995z"/>
     <path id="215" class="fil97" d="M11364 4838l0 2988 2987 0 0 -2988 -2987 0zm-11 -11l3009 0 0 3009 -3009 0 0 -3009z"/>
     <path id="216" class="fil97" d="M11357 4831l0 3002 3001 0 0 -3002 -3001 0zm-11 -11l3023 0 0 3023 -3023 0 0 -3023z"/>
     <path id="217" class="fil97" d="M11350 4824l0 3015 3015 0 0 -3015 -3015 0zm-11 -11l3037 0 0 3037 -3037 0 0 -3037z"/>
     <path id="218" class="fil98" d="M11343 4817l0 3029 3029 0 0 -3029 -3029 0zm-11 -11l3051 0 0 3051 -3051 0 0 -3051z"/>
     <path id="219" class="fil98" d="M11336 4810l0 3043 3043 0 0 -3043 -3043 0zm-11 -11l3065 0 0 3065 -3065 0 0 -3065z"/>
     <path id="220" class="fil98" d="M11329 4803l0 3057 3057 0 0 -3057 -3057 0zm-11 -10l3079 0 0 3078 -3079 0 0 -3078z"/>
     <path id="221" class="fil98" d="M11322 4796l0 3071 3071 0 0 -3071 -3071 0zm-11 -10l3093 0 0 3092 -3093 0 0 -3092z"/>
     <path id="222" class="fil99" d="M11315 4789l0 3085 3085 0 0 -3085 -3085 0zm-11 -10l3107 0 0 3106 -3107 0 0 -3106z"/>
     <path id="223" class="fil100" d="M11308 4782l0 3099 3099 0 0 -3099 -3099 0zm-11 -10l3121 0 0 3120 -3121 0 0 -3120z"/>
     <path id="224" class="fil100" d="M11301 4775l0 3113 3113 0 0 -3113 -3113 0zm-11 -10l3135 0 0 3134 -3135 0 0 -3134z"/>
     <path id="225" class="fil100" d="M11294 4768l0 3127 3127 0 0 -3127 -3127 0zm-11 -10l3149 0 0 3148 -3149 0 0 -3148z"/>
     <path id="226" class="fil100" d="M11287 4761l0 3141 3141 0 0 -3141 -3141 0zm-11 -10l3163 0 0 3162 -3163 0 0 -3162z"/>
     <path id="227" class="fil100" d="M11280 4754l0 3155 3155 0 0 -3155 -3155 0zm-11 -10l3177 0 0 3176 -3177 0 0 -3176z"/>
     <path id="228" class="fil101" d="M11273 4747l0 3169 3169 0 0 -3169 -3169 0zm-11 -10l3191 0 0 3190 -3191 0 0 -3190z"/>
     <path id="229" class="fil102" d="M11266 4740l0 3183 3183 0 0 -3183 -3183 0zm-11 -10l3205 0 0 3204 -3205 0 0 -3204z"/>
     <path id="230" class="fil102" d="M11259 4733l0 3197 3197 0 0 -3197 -3197 0zm-11 -10l3218 0 0 3218 -3218 0 0 -3218z"/>
     <path id="231" class="fil102" d="M11252 4726l0 3211 3211 0 0 -3211 -3211 0zm-10 -10l3231 0 0 3232 -3231 0 0 -3232z"/>
     <path id="232" class="fil103" d="M11245 4719l0 3225 3225 0 0 -3225 -3225 0zm-10 -10l3245 0 0 3246 -3245 0 0 -3246z"/>
     <path id="233" class="fil103" d="M11238 4712l0 3239 3239 0 0 -3239 -3239 0zm-10 -10l3259 0 0 3260 -3259 0 0 -3260z"/>
     <path id="234" class="fil104" d="M11231 4705l0 3253 3253 0 0 -3253 -3253 0zm-10 -10l3273 0 0 3274 -3273 0 0 -3274z"/>
     <path id="235" class="fil104" d="M11224 4698l0 3267 3267 0 0 -3267 -3267 0zm-10 -10l3287 0 0 3288 -3287 0 0 -3288z"/>
     <path id="236" class="fil105" d="M11217 4691l0 3281 3281 0 0 -3281 -3281 0zm-10 -10l3301 0 0 3302 -3301 0 0 -3302z"/>
     <path id="237" class="fil106" d="M11210 4684l0 3295 3295 0 0 -3295 -3295 0zm-10 -10l3315 0 0 3316 -3315 0 0 -3316z"/>
     <path id="238" class="fil106" d="M11203 4677l0 3309 3309 0 0 -3309 -3309 0zm-10 -10l3329 0 0 3330 -3329 0 0 -3330z"/>
     <path id="239" class="fil107" d="M11196 4670l0 3323 3323 0 0 -3323 -3323 0zm-10 -10l3343 0 0 3344 -3343 0 0 -3344z"/>
     <path id="240" class="fil107" d="M11189 4663l0 3337 3337 0 0 -3337 -3337 0zm-10 -10l3357 0 0 3358 -3357 0 0 -3358z"/>
     <path id="241" class="fil107" d="M11182 4656l0 3351 3351 0 0 -3351 -3351 0zm-10 -10l3371 0 0 3371 -3371 0 0 -3371z"/>
     <path id="242" class="fil108" d="M11175 4649l0 3365 3365 0 0 -3365 -3365 0zm-10 -10l3385 0 0 3385 -3385 0 0 -3385z"/>
     <path id="243" class="fil108" d="M11168 4642l0 3379 3379 0 0 -3379 -3379 0zm-10 -10l3399 0 0 3399 -3399 0 0 -3399z"/>
     <path id="244" class="fil109" d="M11161 4635l0 3393 3393 0 0 -3393 -3393 0zm-10 -10l3413 0 0 3413 -3413 0 0 -3413z"/>
     <path id="245" class="fil110" d="M11154 4628l0 3407 3407 0 0 -3407 -3407 0zm-10 -10l3427 0 0 3427 -3427 0 0 -3427z"/>
     <path id="246" class="fil110" d="M11147 4621l0 3421 3421 0 0 -3421 -3421 0zm-10 -10l3441 0 0 3441 -3441 0 0 -3441z"/>
     <path id="247" class="fil110" d="M11140 4615l0 3434 3435 0 0 -3434 -3435 0zm-10 -11l3455 0 0 3455 -3455 0 0 -3455z"/>
     <path id="248" class="fil110" d="M11133 4608l0 3448 3449 0 0 -3448 -3449 0zm-10 -11l3469 0 0 3469 -3469 0 0 -3469z"/>
     <path id="249" class="fil111" d="M11126 4601l0 3462 3463 0 0 -3462 -3463 0zm-10 -11l3483 0 0 3483 -3483 0 0 -3483z"/>
     <path id="250" class="fil112" d="M11119 4594l0 3476 3477 0 0 -3476 -3477 0zm-10 -11l3497 0 0 3497 -3497 0 0 -3497z"/>
     <path id="251" class="fil112" d="M11112 4587l0 3490 3491 0 0 -3490 -3491 0zm-10 -11l3511 0 0 3511 -3511 0 0 -3511z"/>
     <path id="252" class="fil113" d="M11105 4580l0 3504 3505 0 0 -3504 -3505 0zm-10 -11l3525 0 0 3525 -3525 0 0 -3525z"/>
     <path id="253" class="fil114" d="M11098 4573l0 3518 3519 0 0 -3518 -3519 0zm-10 -11l3539 0 0 3539 -3539 0 0 -3539z"/>
     <path id="254" class="fil8" d="M11091 4566l0 3532 3533 0 0 -3532 -3533 0zm-10 -11l3553 0 0 3553 -3553 0 0 -3553z"/>
     <path id="255" class="fil8" d="M11084 4559l0 3546 3547 0 0 -3546 -3547 0zm-10 -11l3567 0 0 3567 -3567 0 0 -3567z"/>
     <path id="256" class="fil8" d="M11077 4552l0 3560 3561 0 0 -3560 -3561 0zm-7 -7l3574 0 0 3574 -3574 0 0 -3574z"/>
    </g>
   </g>
   <circle class="fil9 str0" cx="12857" cy="6332" r="1366"/>
  </g>
 </g>
</svg>
