<?xml version="1.0" encoding="UTF-8"?>
<!DOCTYPE svg PUBLIC "-//W3C//DTD SVG 1.1//EN" "http://www.w3.org/Graphics/SVG/1.1/DTD/svg11.dtd">
<!-- Creator: CorelDRAW X8 -->
<svg xmlns="http://www.w3.org/2000/svg" xml:space="preserve" width="186.267mm" height="287.867mm" version="1.1" style="shape-rendering:geometricPrecision; text-rendering:geometricPrecision; image-rendering:optimizeQuality; fill-rule:evenodd; clip-rule:evenodd"
viewBox="0 0 18627 28787"
 xmlns:xlink="http://www.w3.org/1999/xlink">
 <defs>
  <style type="text/css">
   <![CDATA[
    .str0 {stroke:#FFED00;stroke-width:20}
    .fil95 {fill:none}
    .fil7 {fill:#9E9D24}
    .fil94 {fill:#D7C948}
    .fil8 {fill:#D7C949}
    .fil93 {fill:#D8CA48}
    .fil92 {fill:#D9CA48}
    .fil90 {fill:#D9CB47}
    .fil91 {fill:#D9CB48}
    .fil88 {fill:#DACB46}
    .fil89 {fill:#DACB47}
    .fil86 {fill:#DACC45}
    .fil87 {fill:#DACC46}
    .fil84 {fill:#DBCC44}
    .fil85 {fill:#DBCC45}
    .fil83 {fill:#DCCD44}
    .fil81 {fill:#DDCD43}
    .fil82 {fill:#DDCD44}
    .fil80 {fill:#DDCE41}
    .fil78 {fill:#DECF40}
    .fil79 {fill:#DECF41}
    .fil76 {fill:#DFCF3F}
    .fil77 {fill:#DFCF40}
    .fil75 {fill:#E0CF3F}
    .fil73 {fill:#E0D03E}
    .fil74 {fill:#E0D03F}
    .fil72 {fill:#E1D13C}
    .fil70 {fill:#E2D13B}
    .fil71 {fill:#E2D13C}
    .fil69 {fill:#E2D23B}
    .fil67 {fill:#E3D238}
    .fil68 {fill:#E3D23A}
    .fil65 {fill:#E5D435}
    .fil66 {fill:#E5D437}
    .fil62 {fill:#E6D434}
    .fil64 {fill:#E6D435}
    .fil63 {fill:#E6D535}
    .fil60 {fill:#E7D532}
    .fil61 {fill:#E7D534}
    .fil58 {fill:#E8D631}
    .fil59 {fill:#E8D632}
    .fil56 {fill:#E9D62F}
    .fil57 {fill:#E9D631}
    .fil55 {fill:#E9D72F}
    .fil54 {fill:#EAD72F}
    .fil52 {fill:#EAD82B}
    .fil53 {fill:#EAD82D}
    .fil50 {fill:#ECD929}
    .fil51 {fill:#ECD92B}
    .fil49 {fill:#EDD927}
    .fil47 {fill:#EDDA25}
    .fil48 {fill:#EDDA27}
    .fil45 {fill:#EEDB23}
    .fil46 {fill:#EEDB25}
    .fil42 {fill:#EFDC1E}
    .fil43 {fill:#EFDC21}
    .fil44 {fill:#EFDC23}
    .fil40 {fill:#F0DD1B}
    .fil41 {fill:#F0DD1E}
    .fil39 {fill:#F1DE18}
    .fil38 {fill:#F2DE18}
    .fil34 {fill:#F2DF12}
    .fil35 {fill:#F2DF14}
    .fil36 {fill:#F2DF15}
    .fil37 {fill:#F2DF18}
    .fil32 {fill:#F3E00E}
    .fil33 {fill:#F3E011}
    .fil30 {fill:#F3E10C}
    .fil31 {fill:#F3E10D}
    .fil29 {fill:#F4E10B}
    .fil27 {fill:#F5E209}
    .fil28 {fill:#F5E20B}
    .fil24 {fill:#F6E304}
    .fil25 {fill:#F6E305}
    .fil26 {fill:#F6E306}
    .fil23 {fill:#F7E402}
    .fil21 {fill:#F7E501}
    .fil22 {fill:#F7E502}
    .fil20 {fill:#F8E500}
    .fil19 {fill:#F8E600}
    .fil18 {fill:#F9E600}
    .fil17 {fill:#FAE700}
    .fil16 {fill:#FBE800}
    .fil15 {fill:#FBE900}
    .fil14 {fill:#FCE900}
    .fil13 {fill:#FDEA00}
    .fil12 {fill:#FDEB00}
    .fil11 {fill:#FEEB00}
    .fil10 {fill:#FEEC00}
    .fil9 {fill:#FFED00}
    .fil0 {fill:url(#id1)}
    .fil1 {fill:url(#id2)}
    .fil5 {fill:url(#id3)}
    .fil4 {fill:url(#id4)}
    .fil3 {fill:url(#id5)}
    .fil2 {fill:url(#id6)}
    .fil6 {fill:url(#id7)}
   ]]>
  </style>
      <clipPath id="id0">
       <path d="M13113 4986c987,0 1787,800 1787,1787 0,987 -800,1787 -1787,1787 -986,0 -1787,-800 -1787,-1787 0,-987 801,-1787 1787,-1787z"/>
      </clipPath>
  <linearGradient id="id1" gradientUnits="userSpaceOnUse" x1="9333" y1="17852.7" x2="9550.43" y2="-11904.5">
   <stop offset="0" style="stop-opacity:1; stop-color:#FFD740"/>
   <stop offset="0.988235" style="stop-opacity:1; stop-color:#60ACC4"/>
   <stop offset="1" style="stop-opacity:1; stop-color:#CCCF2C"/>
  </linearGradient>
  <linearGradient id="id2" gradientUnits="userSpaceOnUse" x1="2487.6" y1="22185" x2="2851.19" y2="13534.8">
   <stop offset="0" style="stop-opacity:1; stop-color:#DBBB3B"/>
   <stop offset="0.309804" style="stop-opacity:1; stop-color:#8DCB32"/>
   <stop offset="1" style="stop-opacity:1; stop-color:#3FDB28"/>
  </linearGradient>
  <linearGradient id="id3" gradientUnits="userSpaceOnUse" x1="11624.6" y1="18512.7" x2="11802.6" y2="13165.9">
   <stop offset="0" style="stop-opacity:1; stop-color:#9E9D24"/>
   <stop offset="0.831373" style="stop-opacity:1; stop-color:#CECE91"/>
   <stop offset="1" style="stop-opacity:1; stop-color:white"/>
  </linearGradient>
  <linearGradient id="id4" gradientUnits="userSpaceOnUse" xlink:href="#id3" x1="11623.8" y1="18512.7" x2="11801" y2="13165.9">
  </linearGradient>
  <linearGradient id="id5" gradientUnits="userSpaceOnUse" x1="9324.69" y1="19279.7" x2="9554.69" y2="12509.9">
   <stop offset="0" style="stop-opacity:1; stop-color:#9E9D24"/>
   <stop offset="0.909804" style="stop-opacity:1; stop-color:#CECE91"/>
   <stop offset="1" style="stop-opacity:1; stop-color:white"/>
  </linearGradient>
  <linearGradient id="id6" gradientUnits="userSpaceOnUse" x1="9313.95" y1="19340.7" x2="9509.23" y2="12776.9">
   <stop offset="0" style="stop-opacity:1; stop-color:#9E9D24"/>
   <stop offset="0.921569" style="stop-opacity:1; stop-color:#CECE91"/>
   <stop offset="1" style="stop-opacity:1; stop-color:white"/>
  </linearGradient>
  <linearGradient id="id7" gradientUnits="userSpaceOnUse" x1="13728.6" y1="18156.7" x2="14791.5" y2="10696.9">
   <stop offset="0" style="stop-opacity:1; stop-color:#9E9D24"/>
   <stop offset="0.788235" style="stop-opacity:1; stop-color:#CECE91"/>
   <stop offset="1" style="stop-opacity:1; stop-color:white"/>
  </linearGradient>
 </defs>
 <g id="Warstwa_x0020_1">
  <metadata id="CorelCorpID_0Corel-Layer"/>
  <g id="_2863054705392">
   <path class="fil0" d="M17894 28432l-17163 0c-412,0 -746,-287 -746,-641l0 -27255c0,-354 334,-641 746,-641l17163 0c413,0 746,287 746,641l0 27253c3,356 -330,643 -746,643z"/>
   <path class="fil1" d="M-11 16534c0,0 4293,-823 9858,2955 5783,4113 4196,6117 4196,6117l-14054 -617 0 -8455z"/>
   <g id="_2796627363120">
    <path class="fil2" d="M9191 17639c153,445 146,924 138,1396 -2,95 -3,190 -3,306l-124 0c0,-88 2,-198 4,-308 7,-461 15,-928 -132,-1354l117 -40 0 0z"/>
    <path class="fil3" d="M9271 15808l0 0 0 1c290,0 566,74 775,224 227,163 372,408 372,737l1 0 0 0 0 0 -1 0c0,309 -124,588 -326,790 -202,201 -481,326 -790,326l0 1 0 0 0 0 0 -1c-309,0 -588,-125 -790,-326 -201,-202 -326,-481 -326,-790l-1 0 0 0 0 0 1 0c0,-322 125,-566 333,-731 194,-154 457,-230 752,-230l0 -1 0 0zm0 494l0 1 0 0 0 0 0 -1c-186,0 -342,41 -447,124 -91,72 -145,186 -145,344l1 0 0 0 0 0 -1 0c0,171 70,327 183,440 113,113 269,183 440,183l0 -1 0 0 0 0 0 1c171,0 327,-70 440,-183 113,-113 183,-269 183,-440l-1 0 0 0 0 0 1 0c0,-152 -65,-264 -167,-337 -122,-88 -296,-131 -487,-131z"/>
   </g>
   <g id="_2796627360080">
    <path class="fil4" d="M11437 17464c-30,206 -50,397 -49,585 1,188 22,375 74,574l-119 31c-55,-210 -77,-406 -78,-604 -1,-197 19,-393 50,-603l122 17 0 0z"/>
    <path class="fil5" d="M11347 16396l1 0 0 1c197,0 375,79 504,208 128,128 208,306 208,504l1 0 0 0c0,197 -52,348 -163,458 -109,109 -260,161 -457,161l0 1 0 0 0 -1c-168,0 -352,-39 -498,-122 -181,-102 -308,-265 -308,-497l-1 0 0 0 0 0 1 0c0,-198 80,-376 208,-504 129,-129 307,-208 504,-208l0 -1 0 0 0 0zm1 494l0 0 -1 0 0 0 0 0c-59,0 -114,24 -154,64 -40,41 -65,95 -65,155l1 0 0 0 0 0 -1 0c0,25 24,49 58,68 70,40 165,58 255,58l0 -1 0 0 0 1c59,0 95,-6 108,-18 11,-12 17,-48 17,-108l0 0 1 0c0,-60 -25,-114 -65,-155 -40,-40 -95,-64 -154,-64l0 0z"/>
   </g>
   <path class="fil6" d="M12446 19148c90,-345 174,-702 242,-1091 58,-330 105,-679 134,-1057l-198 -29 29 -213 137 -1019 8 -54 31 -44 157 -220 178 -250 161 228 449 -860 236 -453 163 485c69,205 126,413 167,625 13,71 25,143 34,215l161 -134 124 243 171 336 35 67 -16 75 -211 1023 -34 165 -167 8c-118,358 -210,708 -282,1052 -81,388 -136,767 -174,1142l-433 -45c40,-388 97,-783 181,-1186 85,-404 196,-817 345,-1244l48 -138 124 -6 162 -783 -13 -26 -72 60 -361 301 4 -470c2,-193 -18,-385 -54,-575 -3,-15 -6,-30 -9,-46l-358 686 -164 316 -184 -260 -85 630 170 25 -12 200c-29,477 -82,906 -153,1305 -69,396 -156,767 -251,1126l-420 -110 0 0z"/>
   <path class="fil7" d="M-61 28299c0,327 335,592 749,592l17252 0c414,0 750,-265 750,-592l0 -9710c-8868,-1287 -18653,3018 -18653,3018l-101 6692 3 0 0 0z"/>
   <g id="_2796627358096">
    <g>
     <g>
     </g>
     <g style="clip-path:url(#id0)">
      <g>
       <polygon class="fil8" points="11326,4986 14900,4986 14900,8560 11326,8560 "/>
       <polygon id="_1" class="fil9" points="13103,6762 13124,6762 13124,6783 13103,6783 "/>
       <path id="_2" class="fil9" d="M13107 6766l0 14 13 0 0 -14 -13 0zm-11 -11l35 0 0 35 -35 0 0 -35z"/>
       <path id="_3" class="fil9" d="M13100 6759l0 28 27 0 0 -28 -27 0zm-11 -11l49 0 0 49 -49 0 0 -49z"/>
       <path id="_4" class="fil9" d="M13093 6752l0 42 41 0 0 -42 -41 0zm-11 -11l63 0 0 63 -63 0 0 -63z"/>
       <path id="_5" class="fil9" d="M13086 6745l0 56 55 0 0 -56 -55 0zm-11 -11l77 0 0 77 -77 0 0 -77z"/>
       <path id="_6" class="fil10" d="M13079 6738l0 70 69 0 0 -70 -69 0zm-11 -11l91 0 0 91 -91 0 0 -91z"/>
       <path id="_7" class="fil10" d="M13072 6731l0 84 83 0 0 -84 -83 0zm-11 -11l105 0 0 105 -105 0 0 -105z"/>
       <path id="_8" class="fil11" d="M13065 6724l0 98 97 0 0 -98 -97 0zm-11 -11l119 0 0 119 -119 0 0 -119z"/>
       <path id="_9" class="fil11" d="M13058 6717l0 112 111 0 0 -112 -111 0zm-11 -11l133 0 0 133 -133 0 0 -133z"/>
       <path id="_10" class="fil11" d="M13051 6710l0 126 125 0 0 -126 -125 0zm-11 -11l147 0 0 147 -147 0 0 -147z"/>
       <path id="_11" class="fil11" d="M13044 6703l0 140 139 0 0 -140 -139 0zm-11 -11l161 0 0 161 -161 0 0 -161z"/>
       <path id="_12" class="fil11" d="M13037 6696l0 153 153 0 0 -153 -153 0zm-11 -11l175 0 0 175 -175 0 0 -175z"/>
       <path id="_13" class="fil11" d="M13030 6689l0 167 167 0 0 -167 -167 0zm-11 -11l189 0 0 189 -189 0 0 -189z"/>
       <path id="_14" class="fil11" d="M13023 6682l0 181 181 0 0 -181 -181 0zm-11 -11l203 0 0 203 -203 0 0 -203z"/>
       <path id="_15" class="fil11" d="M13016 6675l0 195 195 0 0 -195 -195 0zm-11 -10l217 0 0 216 -217 0 0 -216z"/>
       <path id="_16" class="fil12" d="M13009 6668l0 209 209 0 0 -209 -209 0zm-11 -10l231 0 0 230 -231 0 0 -230z"/>
       <path id="_17" class="fil12" d="M13002 6661l0 223 223 0 0 -223 -223 0zm-11 -10l245 0 0 244 -245 0 0 -244z"/>
       <path id="_18" class="fil12" d="M12995 6654l0 237 237 0 0 -237 -237 0zm-11 -10l259 0 0 258 -259 0 0 -258z"/>
       <path id="_19" class="fil12" d="M12988 6647l0 251 251 0 0 -251 -251 0zm-11 -10l273 0 0 272 -273 0 0 -272z"/>
       <path id="_20" class="fil12" d="M12981 6640l0 265 265 0 0 -265 -265 0zm-11 -10l287 0 0 286 -287 0 0 -286z"/>
       <path id="_21" class="fil13" d="M12974 6633l0 279 279 0 0 -279 -279 0zm-11 -10l301 0 0 300 -301 0 0 -300z"/>
       <path id="_22" class="fil13" d="M12967 6626l0 293 293 0 0 -293 -293 0zm-11 -10l315 0 0 314 -315 0 0 -314z"/>
       <path id="_23" class="fil13" d="M12960 6619l0 307 307 0 0 -307 -307 0zm-11 -10l329 0 0 328 -329 0 0 -328z"/>
       <path id="_24" class="fil13" d="M12953 6612l0 321 321 0 0 -321 -321 0zm-11 -10l343 0 0 342 -343 0 0 -342z"/>
       <path id="_25" class="fil13" d="M12946 6605l0 335 335 0 0 -335 -335 0zm-11 -10l356 0 0 356 -356 0 0 -356z"/>
       <path id="_26" class="fil14" d="M12939 6598l0 349 349 0 0 -349 -349 0zm-10 -10l369 0 0 370 -369 0 0 -370z"/>
       <path id="_27" class="fil14" d="M12932 6591l0 363 363 0 0 -363 -363 0zm-10 -10l383 0 0 384 -383 0 0 -384z"/>
       <path id="_28" class="fil14" d="M12925 6584l0 377 377 0 0 -377 -377 0zm-10 -10l397 0 0 398 -397 0 0 -398z"/>
       <path id="_29" class="fil15" d="M12918 6577l0 391 391 0 0 -391 -391 0zm-10 -10l411 0 0 412 -411 0 0 -412z"/>
       <path id="_30" class="fil15" d="M12911 6570l0 405 405 0 0 -405 -405 0zm-10 -10l425 0 0 426 -425 0 0 -426z"/>
       <path id="_31" class="fil15" d="M12904 6563l0 419 419 0 0 -419 -419 0zm-10 -10l439 0 0 440 -439 0 0 -440z"/>
       <path id="_32" class="fil15" d="M12897 6556l0 433 433 0 0 -433 -433 0zm-10 -10l453 0 0 454 -453 0 0 -454z"/>
       <path id="_33" class="fil15" d="M12890 6549l0 447 447 0 0 -447 -447 0zm-10 -10l467 0 0 468 -467 0 0 -468z"/>
       <path id="_34" class="fil15" d="M12883 6542l0 461 461 0 0 -461 -461 0zm-10 -10l481 0 0 482 -481 0 0 -482z"/>
       <path id="_35" class="fil16" d="M12876 6535l0 475 475 0 0 -475 -475 0zm-10 -10l495 0 0 496 -495 0 0 -496z"/>
       <path id="_36" class="fil17" d="M12869 6528l0 489 489 0 0 -489 -489 0zm-10 -10l509 0 0 509 -509 0 0 -509z"/>
       <path id="_37" class="fil17" d="M12862 6521l0 503 503 0 0 -503 -503 0zm-10 -10l523 0 0 523 -523 0 0 -523z"/>
       <path id="_38" class="fil17" d="M12855 6514l0 517 517 0 0 -517 -517 0zm-10 -10l537 0 0 537 -537 0 0 -537z"/>
       <path id="_39" class="fil17" d="M12848 6507l0 531 531 0 0 -531 -531 0zm-10 -10l551 0 0 551 -551 0 0 -551z"/>
       <path id="_40" class="fil17" d="M12841 6500l0 545 545 0 0 -545 -545 0zm-10 -10l565 0 0 565 -565 0 0 -565z"/>
       <path id="_41" class="fil17" d="M12834 6493l0 559 559 0 0 -559 -559 0zm-10 -10l579 0 0 579 -579 0 0 -579z"/>
       <path id="_42" class="fil17" d="M12827 6487l0 572 573 0 0 -572 -573 0zm-10 -11l593 0 0 593 -593 0 0 -593z"/>
       <path id="_43" class="fil17" d="M12820 6480l0 586 587 0 0 -586 -587 0zm-10 -11l607 0 0 607 -607 0 0 -607z"/>
       <path id="_44" class="fil17" d="M12813 6473l0 600 601 0 0 -600 -601 0zm-10 -11l621 0 0 621 -621 0 0 -621z"/>
       <path id="_45" class="fil17" d="M12806 6466l0 614 615 0 0 -614 -615 0zm-10 -11l635 0 0 635 -635 0 0 -635z"/>
       <path id="_46" class="fil18" d="M12799 6459l0 628 629 0 0 -628 -629 0zm-10 -11l649 0 0 649 -649 0 0 -649z"/>
       <path id="_47" class="fil18" d="M12792 6452l0 642 643 0 0 -642 -643 0zm-10 -11l663 0 0 663 -663 0 0 -663z"/>
       <path id="_48" class="fil18" d="M12785 6445l0 656 657 0 0 -656 -657 0zm-10 -11l677 0 0 677 -677 0 0 -677z"/>
       <path id="_49" class="fil18" d="M12778 6438l0 670 671 0 0 -670 -671 0zm-10 -11l691 0 0 691 -691 0 0 -691z"/>
       <path id="_50" class="fil18" d="M12771 6431l0 684 685 0 0 -684 -685 0zm-10 -11l705 0 0 705 -705 0 0 -705z"/>
       <path id="_51" class="fil18" d="M12764 6424l0 698 699 0 0 -698 -699 0zm-10 -11l719 0 0 719 -719 0 0 -719z"/>
       <path id="_52" class="fil19" d="M12757 6417l0 712 712 0 0 -712 -712 0zm-10 -11l733 0 0 733 -733 0 0 -733z"/>
       <path id="_53" class="fil19" d="M12751 6410l0 726 725 0 0 -726 -725 0zm-11 -11l747 0 0 747 -747 0 0 -747z"/>
       <path id="_54" class="fil19" d="M12744 6403l0 740 739 0 0 -740 -739 0zm-11 -11l761 0 0 761 -761 0 0 -761z"/>
       <path id="_55" class="fil20" d="M12737 6396l0 754 753 0 0 -754 -753 0zm-11 -11l775 0 0 775 -775 0 0 -775z"/>
       <path id="_56" class="fil20" d="M12730 6389l0 768 767 0 0 -768 -767 0zm-11 -11l789 0 0 789 -789 0 0 -789z"/>
       <path id="_57" class="fil20" d="M12723 6382l0 782 781 0 0 -782 -781 0zm-11 -11l803 0 0 803 -803 0 0 -803z"/>
       <path id="_58" class="fil20" d="M12716 6375l0 796 795 0 0 -796 -795 0zm-11 -11l817 0 0 817 -817 0 0 -817z"/>
       <path id="_59" class="fil21" d="M12709 6368l0 810 809 0 0 -810 -809 0zm-11 -11l831 0 0 831 -831 0 0 -831z"/>
       <path id="_60" class="fil22" d="M12702 6361l0 824 823 0 0 -824 -823 0zm-11 -11l845 0 0 845 -845 0 0 -845z"/>
       <path id="_61" class="fil22" d="M12695 6354l0 838 837 0 0 -838 -837 0zm-11 -11l859 0 0 859 -859 0 0 -859z"/>
       <path id="_62" class="fil23" d="M12688 6347l0 852 851 0 0 -852 -851 0zm-11 -11l873 0 0 873 -873 0 0 -873z"/>
       <path id="_63" class="fil23" d="M12681 6340l0 865 865 0 0 -865 -865 0zm-11 -11l887 0 0 887 -887 0 0 -887z"/>
       <path id="_64" class="fil23" d="M12674 6333l0 879 879 0 0 -879 -879 0zm-11 -11l901 0 0 901 -901 0 0 -901z"/>
       <path id="_65" class="fil24" d="M12667 6326l0 893 893 0 0 -893 -893 0zm-11 -11l915 0 0 915 -915 0 0 -915z"/>
       <path id="_66" class="fil24" d="M12660 6319l0 907 907 0 0 -907 -907 0zm-11 -10l929 0 0 928 -929 0 0 -928z"/>
       <path id="_67" class="fil25" d="M12653 6312l0 921 921 0 0 -921 -921 0zm-11 -10l943 0 0 942 -943 0 0 -942z"/>
       <path id="_68" class="fil25" d="M12646 6305l0 935 935 0 0 -935 -935 0zm-11 -10l957 0 0 956 -957 0 0 -956z"/>
       <path id="_69" class="fil25" d="M12639 6298l0 949 949 0 0 -949 -949 0zm-11 -10l971 0 0 970 -971 0 0 -970z"/>
       <path id="_70" class="fil26" d="M12632 6291l0 963 963 0 0 -963 -963 0zm-11 -10l985 0 0 984 -985 0 0 -984z"/>
       <path id="_71" class="fil26" d="M12625 6284l0 977 977 0 0 -977 -977 0zm-11 -10l999 0 0 998 -999 0 0 -998z"/>
       <path id="_72" class="fil26" d="M12618 6277l0 991 991 0 0 -991 -991 0zm-11 -10l1013 0 0 1012 -1013 0 0 -1012z"/>
       <path id="_73" class="fil26" d="M12611 6270l0 1005 1005 0 0 -1005 -1005 0zm-11 -10l1027 0 0 1026 -1027 0 0 -1026z"/>
       <path id="_74" class="fil26" d="M12604 6263l0 1019 1019 0 0 -1019 -1019 0zm-11 -10l1041 0 0 1040 -1041 0 0 -1040z"/>
       <path id="_75" class="fil27" d="M12597 6256l0 1033 1033 0 0 -1033 -1033 0zm-11 -10l1055 0 0 1054 -1055 0 0 -1054z"/>
       <path id="_76" class="fil27" d="M12590 6249l0 1047 1047 0 0 -1047 -1047 0zm-11 -10l1068 0 0 1068 -1068 0 0 -1068z"/>
       <path id="_77" class="fil27" d="M12583 6242l0 1061 1061 0 0 -1061 -1061 0zm-10 -10l1081 0 0 1082 -1081 0 0 -1082z"/>
       <path id="_78" class="fil27" d="M12576 6235l0 1075 1075 0 0 -1075 -1075 0zm-10 -10l1095 0 0 1096 -1095 0 0 -1096z"/>
       <path id="_79" class="fil27" d="M12569 6228l0 1089 1089 0 0 -1089 -1089 0zm-10 -10l1109 0 0 1110 -1109 0 0 -1110z"/>
       <path id="_80" class="fil27" d="M12562 6221l0 1103 1103 0 0 -1103 -1103 0zm-10 -10l1123 0 0 1124 -1123 0 0 -1124z"/>
       <path id="_81" class="fil28" d="M12555 6214l0 1117 1117 0 0 -1117 -1117 0zm-10 -10l1137 0 0 1138 -1137 0 0 -1138z"/>
       <path id="_82" class="fil28" d="M12548 6207l0 1131 1131 0 0 -1131 -1131 0zm-10 -10l1151 0 0 1152 -1151 0 0 -1152z"/>
       <path id="_83" class="fil29" d="M12541 6200l0 1145 1145 0 0 -1145 -1145 0zm-10 -10l1165 0 0 1166 -1165 0 0 -1166z"/>
       <path id="_84" class="fil29" d="M12534 6193l0 1159 1159 0 0 -1159 -1159 0zm-10 -10l1179 0 0 1180 -1179 0 0 -1180z"/>
       <path id="_85" class="fil30" d="M12527 6186l0 1173 1173 0 0 -1173 -1173 0zm-10 -10l1193 0 0 1194 -1193 0 0 -1194z"/>
       <path id="_86" class="fil31" d="M12520 6179l0 1187 1187 0 0 -1187 -1187 0zm-10 -10l1207 0 0 1208 -1207 0 0 -1208z"/>
       <path id="_87" class="fil31" d="M12513 6172l0 1201 1201 0 0 -1201 -1201 0zm-10 -10l1221 0 0 1221 -1221 0 0 -1221z"/>
       <path id="_88" class="fil31" d="M12506 6165l0 1215 1215 0 0 -1215 -1215 0zm-10 -10l1235 0 0 1235 -1235 0 0 -1235z"/>
       <path id="_89" class="fil32" d="M12499 6158l0 1229 1229 0 0 -1229 -1229 0zm-10 -10l1249 0 0 1249 -1249 0 0 -1249z"/>
       <path id="_90" class="fil32" d="M12492 6151l0 1243 1243 0 0 -1243 -1243 0zm-10 -10l1263 0 0 1263 -1263 0 0 -1263z"/>
       <path id="_91" class="fil33" d="M12485 6144l0 1257 1257 0 0 -1257 -1257 0zm-10 -10l1277 0 0 1277 -1277 0 0 -1277z"/>
       <path id="_92" class="fil33" d="M12478 6137l0 1271 1271 0 0 -1271 -1271 0zm-10 -10l1291 0 0 1291 -1291 0 0 -1291z"/>
       <path id="_93" class="fil33" d="M12471 6131l0 1284 1285 0 0 -1284 -1285 0zm-10 -11l1305 0 0 1305 -1305 0 0 -1305z"/>
       <path id="_94" class="fil33" d="M12464 6124l0 1298 1299 0 0 -1298 -1299 0zm-10 -11l1319 0 0 1319 -1319 0 0 -1319z"/>
       <path id="_95" class="fil34" d="M12457 6117l0 1312 1313 0 0 -1312 -1313 0zm-10 -11l1333 0 0 1333 -1333 0 0 -1333z"/>
       <path id="_96" class="fil35" d="M12450 6110l0 1326 1327 0 0 -1326 -1327 0zm-10 -11l1347 0 0 1347 -1347 0 0 -1347z"/>
       <path id="_97" class="fil35" d="M12443 6103l0 1340 1341 0 0 -1340 -1341 0zm-10 -11l1361 0 0 1361 -1361 0 0 -1361z"/>
       <path id="_98" class="fil36" d="M12436 6096l0 1354 1355 0 0 -1354 -1355 0zm-10 -11l1375 0 0 1375 -1375 0 0 -1375z"/>
       <path id="_99" class="fil36" d="M12429 6089l0 1368 1369 0 0 -1368 -1369 0zm-10 -11l1389 0 0 1389 -1389 0 0 -1389z"/>
       <path id="_100" class="fil36" d="M12422 6082l0 1382 1383 0 0 -1382 -1383 0zm-10 -11l1403 0 0 1403 -1403 0 0 -1403z"/>
       <path id="_101" class="fil37" d="M12415 6075l0 1396 1397 0 0 -1396 -1397 0zm-10 -11l1417 0 0 1417 -1417 0 0 -1417z"/>
       <path id="_102" class="fil38" d="M12408 6068l0 1410 1411 0 0 -1410 -1411 0zm-10 -11l1431 0 0 1431 -1431 0 0 -1431z"/>
       <path id="_103" class="fil38" d="M12401 6061l0 1424 1425 0 0 -1424 -1425 0zm-10 -11l1445 0 0 1445 -1445 0 0 -1445z"/>
       <path id="_104" class="fil39" d="M12395 6054l0 1438 1437 0 0 -1438 -1437 0zm-11 -11l1459 0 0 1459 -1459 0 0 -1459z"/>
       <path id="_105" class="fil39" d="M12388 6047l0 1452 1451 0 0 -1452 -1451 0zm-11 -11l1473 0 0 1473 -1473 0 0 -1473z"/>
       <path id="_106" class="fil40" d="M12381 6040l0 1466 1465 0 0 -1466 -1465 0zm-11 -11l1487 0 0 1487 -1487 0 0 -1487z"/>
       <path id="_107" class="fil40" d="M12374 6033l0 1480 1479 0 0 -1480 -1479 0zm-11 -11l1501 0 0 1501 -1501 0 0 -1501z"/>
       <path id="_108" class="fil40" d="M12367 6026l0 1494 1493 0 0 -1494 -1493 0zm-11 -11l1515 0 0 1515 -1515 0 0 -1515z"/>
       <path id="_109" class="fil40" d="M12360 6019l0 1508 1507 0 0 -1508 -1507 0zm-11 -11l1529 0 0 1529 -1529 0 0 -1529z"/>
       <path id="_110" class="fil40" d="M12353 6012l0 1522 1521 0 0 -1522 -1521 0zm-11 -11l1543 0 0 1543 -1543 0 0 -1543z"/>
       <path id="_111" class="fil41" d="M12346 6005l0 1536 1535 0 0 -1536 -1535 0zm-11 -11l1557 0 0 1557 -1557 0 0 -1557z"/>
       <path id="_112" class="fil41" d="M12339 5998l0 1550 1549 0 0 -1550 -1549 0zm-11 -11l1571 0 0 1571 -1571 0 0 -1571z"/>
       <path id="_113" class="fil41" d="M12332 5991l0 1564 1563 0 0 -1564 -1563 0zm-11 -11l1585 0 0 1585 -1585 0 0 -1585z"/>
       <path id="_114" class="fil42" d="M12325 5984l0 1577 1577 0 0 -1577 -1577 0zm-11 -11l1599 0 0 1599 -1599 0 0 -1599z"/>
       <path id="_115" class="fil42" d="M12318 5977l0 1591 1591 0 0 -1591 -1591 0zm-11 -11l1613 0 0 1613 -1613 0 0 -1613z"/>
       <path id="_116" class="fil43" d="M12311 5970l0 1605 1605 0 0 -1605 -1605 0zm-11 -11l1627 0 0 1627 -1627 0 0 -1627z"/>
       <path id="_117" class="fil43" d="M12304 5963l0 1619 1619 0 0 -1619 -1619 0zm-11 -11l1641 0 0 1641 -1641 0 0 -1641z"/>
       <path id="_118" class="fil43" d="M12297 5956l0 1633 1633 0 0 -1633 -1633 0zm-11 -10l1655 0 0 1654 -1655 0 0 -1654z"/>
       <path id="_119" class="fil43" d="M12290 5949l0 1647 1647 0 0 -1647 -1647 0zm-11 -10l1669 0 0 1668 -1669 0 0 -1668z"/>
       <path id="_120" class="fil43" d="M12283 5942l0 1661 1661 0 0 -1661 -1661 0zm-11 -10l1683 0 0 1682 -1683 0 0 -1682z"/>
       <path id="_121" class="fil44" d="M12276 5935l0 1675 1675 0 0 -1675 -1675 0zm-11 -10l1697 0 0 1696 -1697 0 0 -1696z"/>
       <path id="_122" class="fil44" d="M12269 5928l0 1689 1689 0 0 -1689 -1689 0zm-11 -10l1711 0 0 1710 -1711 0 0 -1710z"/>
       <path id="_123" class="fil44" d="M12262 5921l0 1703 1703 0 0 -1703 -1703 0zm-11 -10l1725 0 0 1724 -1725 0 0 -1724z"/>
       <path id="_124" class="fil45" d="M12255 5914l0 1717 1717 0 0 -1717 -1717 0zm-11 -10l1739 0 0 1738 -1739 0 0 -1738z"/>
       <path id="_125" class="fil45" d="M12248 5907l0 1731 1731 0 0 -1731 -1731 0zm-11 -10l1753 0 0 1752 -1753 0 0 -1752z"/>
       <path id="_126" class="fil46" d="M12241 5900l0 1745 1745 0 0 -1745 -1745 0zm-11 -10l1767 0 0 1766 -1767 0 0 -1766z"/>
       <path id="_127" class="fil46" d="M12234 5893l0 1759 1759 0 0 -1759 -1759 0zm-11 -10l1781 0 0 1780 -1781 0 0 -1780z"/>
       <path id="_128" class="fil46" d="M12227 5886l0 1773 1773 0 0 -1773 -1773 0zm-10 -10l1793 0 0 1794 -1793 0 0 -1794z"/>
       <path id="_129" class="fil47" d="M12220 5879l0 1787 1787 0 0 -1787 -1787 0zm-10 -10l1807 0 0 1808 -1807 0 0 -1808z"/>
       <path id="_130" class="fil47" d="M12213 5872l0 1801 1801 0 0 -1801 -1801 0zm-10 -10l1821 0 0 1822 -1821 0 0 -1822z"/>
       <path id="_131" class="fil47" d="M12206 5865l0 1815 1815 0 0 -1815 -1815 0zm-10 -10l1835 0 0 1836 -1835 0 0 -1836z"/>
       <path id="_132" class="fil48" d="M12199 5858l0 1829 1829 0 0 -1829 -1829 0zm-10 -10l1849 0 0 1850 -1849 0 0 -1850z"/>
       <path id="_133" class="fil48" d="M12192 5851l0 1843 1843 0 0 -1843 -1843 0zm-10 -10l1863 0 0 1864 -1863 0 0 -1864z"/>
       <path id="_134" class="fil49" d="M12185 5844l0 1857 1857 0 0 -1857 -1857 0zm-10 -10l1877 0 0 1878 -1877 0 0 -1878z"/>
       <path id="_135" class="fil49" d="M12178 5837l0 1871 1871 0 0 -1871 -1871 0zm-10 -10l1891 0 0 1892 -1891 0 0 -1892z"/>
       <path id="_136" class="fil49" d="M12171 5830l0 1885 1885 0 0 -1885 -1885 0zm-10 -10l1905 0 0 1906 -1905 0 0 -1906z"/>
       <path id="_137" class="fil50" d="M12164 5823l0 1899 1899 0 0 -1899 -1899 0zm-10 -10l1919 0 0 1920 -1919 0 0 -1920z"/>
       <path id="_138" class="fil50" d="M12157 5816l0 1913 1913 0 0 -1913 -1913 0zm-10 -10l1933 0 0 1934 -1933 0 0 -1934z"/>
       <path id="_139" class="fil50" d="M12150 5809l0 1927 1927 0 0 -1927 -1927 0zm-10 -10l1947 0 0 1947 -1947 0 0 -1947z"/>
       <path id="_140" class="fil50" d="M12143 5802l0 1941 1941 0 0 -1941 -1941 0zm-10 -10l1961 0 0 1961 -1961 0 0 -1961z"/>
       <path id="_141" class="fil50" d="M12136 5795l0 1955 1955 0 0 -1955 -1955 0zm-10 -10l1975 0 0 1975 -1975 0 0 -1975z"/>
       <path id="_142" class="fil51" d="M12129 5788l0 1969 1969 0 0 -1969 -1969 0zm-10 -10l1989 0 0 1989 -1989 0 0 -1989z"/>
       <path id="_143" class="fil51" d="M12122 5781l0 1983 1983 0 0 -1983 -1983 0zm-10 -10l2003 0 0 2003 -2003 0 0 -2003z"/>
       <path id="_144" class="fil52" d="M12115 5774l0 1997 1997 0 0 -1997 -1997 0zm-10 -10l2017 0 0 2017 -2017 0 0 -2017z"/>
       <path id="_145" class="fil52" d="M12108 5768l0 2010 2011 0 0 -2010 -2011 0zm-10 -11l2031 0 0 2031 -2031 0 0 -2031z"/>
       <path id="_146" class="fil52" d="M12101 5761l0 2024 2025 0 0 -2024 -2025 0zm-10 -11l2045 0 0 2045 -2045 0 0 -2045z"/>
       <path id="_147" class="fil53" d="M12094 5754l0 2038 2039 0 0 -2038 -2039 0zm-10 -11l2059 0 0 2059 -2059 0 0 -2059z"/>
       <path id="_148" class="fil53" d="M12087 5747l0 2052 2053 0 0 -2052 -2053 0zm-10 -11l2073 0 0 2073 -2073 0 0 -2073z"/>
       <path id="_149" class="fil53" d="M12080 5740l0 2066 2067 0 0 -2066 -2067 0zm-10 -11l2087 0 0 2087 -2087 0 0 -2087z"/>
       <path id="_150" class="fil53" d="M12073 5733l0 2080 2081 0 0 -2080 -2081 0zm-10 -11l2101 0 0 2101 -2101 0 0 -2101z"/>
       <path id="_151" class="fil53" d="M12066 5726l0 2094 2095 0 0 -2094 -2095 0zm-10 -11l2115 0 0 2115 -2115 0 0 -2115z"/>
       <path id="_152" class="fil54" d="M12059 5719l0 2108 2109 0 0 -2108 -2109 0zm-10 -11l2129 0 0 2129 -2129 0 0 -2129z"/>
       <path id="_153" class="fil54" d="M12052 5712l0 2122 2123 0 0 -2122 -2123 0zm-10 -11l2143 0 0 2143 -2143 0 0 -2143z"/>
       <path id="_154" class="fil55" d="M12045 5705l0 2136 2137 0 0 -2136 -2137 0zm-10 -11l2157 0 0 2157 -2157 0 0 -2157z"/>
       <path id="_155" class="fil55" d="M12038 5698l0 2150 2150 0 0 -2150 -2150 0zm-10 -11l2171 0 0 2171 -2171 0 0 -2171z"/>
       <path id="_156" class="fil56" d="M12032 5691l0 2164 2163 0 0 -2164 -2163 0zm-11 -11l2185 0 0 2185 -2185 0 0 -2185z"/>
       <path id="_157" class="fil57" d="M12025 5684l0 2178 2177 0 0 -2178 -2177 0zm-11 -11l2199 0 0 2199 -2199 0 0 -2199z"/>
       <path id="_158" class="fil57" d="M12018 5677l0 2192 2191 0 0 -2192 -2191 0zm-11 -11l2213 0 0 2213 -2213 0 0 -2213z"/>
       <path id="_159" class="fil57" d="M12011 5670l0 2206 2205 0 0 -2206 -2205 0zm-11 -11l2227 0 0 2227 -2227 0 0 -2227z"/>
       <path id="_160" class="fil58" d="M12004 5663l0 2220 2219 0 0 -2220 -2219 0zm-11 -11l2241 0 0 2241 -2241 0 0 -2241z"/>
       <path id="_161" class="fil58" d="M11997 5656l0 2234 2233 0 0 -2234 -2233 0zm-11 -11l2255 0 0 2255 -2255 0 0 -2255z"/>
       <path id="_162" class="fil59" d="M11990 5649l0 2248 2247 0 0 -2248 -2247 0zm-11 -11l2269 0 0 2269 -2269 0 0 -2269z"/>
       <path id="_163" class="fil60" d="M11983 5642l0 2262 2261 0 0 -2262 -2261 0zm-11 -11l2283 0 0 2283 -2283 0 0 -2283z"/>
       <path id="_164" class="fil60" d="M11976 5635l0 2276 2275 0 0 -2276 -2275 0zm-11 -11l2297 0 0 2297 -2297 0 0 -2297z"/>
       <path id="_165" class="fil60" d="M11969 5628l0 2290 2289 0 0 -2290 -2289 0zm-11 -11l2311 0 0 2311 -2311 0 0 -2311z"/>
       <path id="_166" class="fil60" d="M11962 5621l0 2303 2303 0 0 -2303 -2303 0zm-11 -11l2325 0 0 2325 -2325 0 0 -2325z"/>
       <path id="_167" class="fil61" d="M11955 5614l0 2317 2317 0 0 -2317 -2317 0zm-11 -11l2339 0 0 2339 -2339 0 0 -2339z"/>
       <path id="_168" class="fil61" d="M11948 5607l0 2331 2331 0 0 -2331 -2331 0zm-11 -11l2353 0 0 2353 -2353 0 0 -2353z"/>
       <path id="_169" class="fil62" d="M11941 5600l0 2345 2345 0 0 -2345 -2345 0zm-11 -10l2367 0 0 2366 -2367 0 0 -2366z"/>
       <path id="_170" class="fil62" d="M11934 5593l0 2359 2359 0 0 -2359 -2359 0zm-11 -10l2381 0 0 2380 -2381 0 0 -2380z"/>
       <path id="_171" class="fil62" d="M11927 5586l0 2373 2373 0 0 -2373 -2373 0zm-11 -10l2395 0 0 2394 -2395 0 0 -2394z"/>
       <path id="_172" class="fil63" d="M11920 5579l0 2387 2387 0 0 -2387 -2387 0zm-11 -10l2409 0 0 2408 -2409 0 0 -2408z"/>
       <path id="_173" class="fil64" d="M11913 5572l0 2401 2401 0 0 -2401 -2401 0zm-11 -10l2423 0 0 2422 -2423 0 0 -2422z"/>
       <path id="_174" class="fil64" d="M11906 5565l0 2415 2415 0 0 -2415 -2415 0zm-11 -10l2437 0 0 2436 -2437 0 0 -2436z"/>
       <path id="_175" class="fil65" d="M11899 5558l0 2429 2429 0 0 -2429 -2429 0zm-11 -10l2451 0 0 2450 -2451 0 0 -2450z"/>
       <path id="_176" class="fil65" d="M11892 5551l0 2443 2443 0 0 -2443 -2443 0zm-11 -10l2465 0 0 2464 -2465 0 0 -2464z"/>
       <path id="_177" class="fil66" d="M11885 5544l0 2457 2457 0 0 -2457 -2457 0zm-11 -10l2479 0 0 2478 -2479 0 0 -2478z"/>
       <path id="_178" class="fil66" d="M11878 5537l0 2471 2471 0 0 -2471 -2471 0zm-11 -10l2493 0 0 2492 -2493 0 0 -2492z"/>
       <path id="_179" class="fil66" d="M11871 5530l0 2485 2485 0 0 -2485 -2485 0zm-11 -10l2506 0 0 2506 -2506 0 0 -2506z"/>
       <path id="_180" class="fil66" d="M11864 5523l0 2499 2499 0 0 -2499 -2499 0zm-10 -10l2519 0 0 2520 -2519 0 0 -2520z"/>
       <path id="_181" class="fil66" d="M11857 5516l0 2513 2513 0 0 -2513 -2513 0zm-10 -10l2533 0 0 2534 -2533 0 0 -2534z"/>
       <path id="_182" class="fil66" d="M11850 5509l0 2527 2527 0 0 -2527 -2527 0zm-10 -10l2547 0 0 2548 -2547 0 0 -2548z"/>
       <path id="_183" class="fil67" d="M11843 5502l0 2541 2541 0 0 -2541 -2541 0zm-10 -10l2561 0 0 2562 -2561 0 0 -2562z"/>
       <path id="_184" class="fil67" d="M11836 5495l0 2555 2555 0 0 -2555 -2555 0zm-10 -10l2575 0 0 2576 -2575 0 0 -2576z"/>
       <path id="_185" class="fil67" d="M11829 5488l0 2569 2569 0 0 -2569 -2569 0zm-10 -10l2589 0 0 2590 -2589 0 0 -2590z"/>
       <path id="_186" class="fil67" d="M11822 5481l0 2583 2583 0 0 -2583 -2583 0zm-10 -10l2603 0 0 2604 -2603 0 0 -2604z"/>
       <path id="_187" class="fil67" d="M11815 5474l0 2597 2597 0 0 -2597 -2597 0zm-10 -10l2617 0 0 2618 -2617 0 0 -2618z"/>
       <path id="_188" class="fil68" d="M11808 5467l0 2611 2611 0 0 -2611 -2611 0zm-10 -10l2631 0 0 2632 -2631 0 0 -2632z"/>
       <path id="_189" class="fil68" d="M11801 5460l0 2625 2625 0 0 -2625 -2625 0zm-10 -10l2645 0 0 2646 -2645 0 0 -2646z"/>
       <path id="_190" class="fil68" d="M11794 5453l0 2639 2639 0 0 -2639 -2639 0zm-10 -10l2659 0 0 2659 -2659 0 0 -2659z"/>
       <path id="_191" class="fil68" d="M11787 5446l0 2653 2653 0 0 -2653 -2653 0zm-10 -10l2673 0 0 2673 -2673 0 0 -2673z"/>
       <path id="_192" class="fil68" d="M11780 5439l0 2667 2667 0 0 -2667 -2667 0zm-10 -10l2687 0 0 2687 -2687 0 0 -2687z"/>
       <path id="_193" class="fil69" d="M11773 5432l0 2681 2681 0 0 -2681 -2681 0zm-10 -10l2701 0 0 2701 -2701 0 0 -2701z"/>
       <path id="_194" class="fil69" d="M11766 5425l0 2695 2695 0 0 -2695 -2695 0zm-10 -10l2715 0 0 2715 -2715 0 0 -2715z"/>
       <path id="_195" class="fil69" d="M11759 5418l0 2709 2709 0 0 -2709 -2709 0zm-10 -10l2729 0 0 2729 -2729 0 0 -2729z"/>
       <path id="_196" class="fil70" d="M11752 5412l0 2722 2723 0 0 -2722 -2723 0zm-10 -11l2743 0 0 2743 -2743 0 0 -2743z"/>
       <path id="_197" class="fil70" d="M11745 5405l0 2736 2737 0 0 -2736 -2737 0zm-10 -11l2757 0 0 2757 -2757 0 0 -2757z"/>
       <path id="_198" class="fil71" d="M11738 5398l0 2750 2751 0 0 -2750 -2751 0zm-10 -11l2771 0 0 2771 -2771 0 0 -2771z"/>
       <path id="_199" class="fil72" d="M11731 5391l0 2764 2765 0 0 -2764 -2765 0zm-10 -11l2785 0 0 2785 -2785 0 0 -2785z"/>
       <path id="_200" class="fil72" d="M11724 5384l0 2778 2779 0 0 -2778 -2779 0zm-10 -11l2799 0 0 2799 -2799 0 0 -2799z"/>
       <path id="_201" class="fil72" d="M11717 5377l0 2792 2793 0 0 -2792 -2793 0zm-10 -11l2813 0 0 2813 -2813 0 0 -2813z"/>
       <path id="_202" class="fil72" d="M11710 5370l0 2806 2807 0 0 -2806 -2807 0zm-10 -11l2827 0 0 2827 -2827 0 0 -2827z"/>
       <path id="_203" class="fil73" d="M11703 5363l0 2820 2821 0 0 -2820 -2821 0zm-10 -11l2841 0 0 2841 -2841 0 0 -2841z"/>
       <path id="_204" class="fil73" d="M11696 5356l0 2834 2835 0 0 -2834 -2835 0zm-10 -11l2855 0 0 2855 -2855 0 0 -2855z"/>
       <path id="_205" class="fil73" d="M11689 5349l0 2848 2849 0 0 -2848 -2849 0zm-10 -11l2869 0 0 2869 -2869 0 0 -2869z"/>
       <path id="_206" class="fil73" d="M11682 5342l0 2862 2862 0 0 -2862 -2862 0zm-10 -11l2883 0 0 2883 -2883 0 0 -2883z"/>
       <path id="_207" class="fil73" d="M11676 5335l0 2876 2875 0 0 -2876 -2875 0zm-11 -11l2897 0 0 2897 -2897 0 0 -2897z"/>
       <path id="_208" class="fil74" d="M11669 5328l0 2890 2889 0 0 -2890 -2889 0zm-11 -11l2911 0 0 2911 -2911 0 0 -2911z"/>
       <path id="_209" class="fil74" d="M11662 5321l0 2904 2903 0 0 -2904 -2903 0zm-11 -11l2925 0 0 2925 -2925 0 0 -2925z"/>
       <path id="_210" class="fil75" d="M11655 5314l0 2918 2917 0 0 -2918 -2917 0zm-11 -11l2939 0 0 2939 -2939 0 0 -2939z"/>
       <path id="_211" class="fil75" d="M11648 5307l0 2932 2931 0 0 -2932 -2931 0zm-11 -11l2953 0 0 2953 -2953 0 0 -2953z"/>
       <path id="_212" class="fil76" d="M11641 5300l0 2946 2945 0 0 -2946 -2945 0zm-11 -11l2967 0 0 2967 -2967 0 0 -2967z"/>
       <path id="_213" class="fil77" d="M11634 5293l0 2960 2959 0 0 -2960 -2959 0zm-11 -11l2981 0 0 2981 -2981 0 0 -2981z"/>
       <path id="_214" class="fil78" d="M11627 5286l0 2974 2973 0 0 -2974 -2973 0zm-11 -11l2995 0 0 2995 -2995 0 0 -2995z"/>
       <path id="_215" class="fil78" d="M11620 5279l0 2988 2987 0 0 -2988 -2987 0zm-11 -11l3009 0 0 3009 -3009 0 0 -3009z"/>
       <path id="_216" class="fil78" d="M11613 5272l0 3002 3001 0 0 -3002 -3001 0zm-11 -11l3023 0 0 3023 -3023 0 0 -3023z"/>
       <path id="_217" class="fil78" d="M11606 5265l0 3015 3015 0 0 -3015 -3015 0zm-11 -11l3037 0 0 3037 -3037 0 0 -3037z"/>
       <path id="_218" class="fil79" d="M11599 5258l0 3029 3029 0 0 -3029 -3029 0zm-11 -11l3051 0 0 3051 -3051 0 0 -3051z"/>
       <path id="_219" class="fil79" d="M11592 5251l0 3043 3043 0 0 -3043 -3043 0zm-11 -11l3065 0 0 3065 -3065 0 0 -3065z"/>
       <path id="_220" class="fil79" d="M11585 5244l0 3057 3057 0 0 -3057 -3057 0zm-11 -10l3079 0 0 3078 -3079 0 0 -3078z"/>
       <path id="_221" class="fil79" d="M11578 5237l0 3071 3071 0 0 -3071 -3071 0zm-11 -10l3093 0 0 3092 -3093 0 0 -3092z"/>
       <path id="_222" class="fil80" d="M11571 5230l0 3085 3085 0 0 -3085 -3085 0zm-11 -10l3107 0 0 3106 -3107 0 0 -3106z"/>
       <path id="_223" class="fil81" d="M11564 5223l0 3099 3099 0 0 -3099 -3099 0zm-11 -10l3121 0 0 3120 -3121 0 0 -3120z"/>
       <path id="_224" class="fil81" d="M11557 5216l0 3113 3113 0 0 -3113 -3113 0zm-11 -10l3135 0 0 3134 -3135 0 0 -3134z"/>
       <path id="_225" class="fil81" d="M11550 5209l0 3127 3127 0 0 -3127 -3127 0zm-11 -10l3149 0 0 3148 -3149 0 0 -3148z"/>
       <path id="_226" class="fil81" d="M11543 5202l0 3141 3141 0 0 -3141 -3141 0zm-11 -10l3163 0 0 3162 -3163 0 0 -3162z"/>
       <path id="_227" class="fil81" d="M11536 5195l0 3155 3155 0 0 -3155 -3155 0zm-11 -10l3177 0 0 3176 -3177 0 0 -3176z"/>
       <path id="_228" class="fil82" d="M11529 5188l0 3169 3169 0 0 -3169 -3169 0zm-11 -10l3191 0 0 3190 -3191 0 0 -3190z"/>
       <path id="_229" class="fil83" d="M11522 5181l0 3183 3183 0 0 -3183 -3183 0zm-11 -10l3205 0 0 3204 -3205 0 0 -3204z"/>
       <path id="_230" class="fil83" d="M11515 5174l0 3197 3197 0 0 -3197 -3197 0zm-11 -10l3218 0 0 3218 -3218 0 0 -3218z"/>
       <path id="_231" class="fil83" d="M11508 5167l0 3211 3211 0 0 -3211 -3211 0zm-10 -10l3231 0 0 3232 -3231 0 0 -3232z"/>
       <path id="_232" class="fil84" d="M11501 5160l0 3225 3225 0 0 -3225 -3225 0zm-10 -10l3245 0 0 3246 -3245 0 0 -3246z"/>
       <path id="_233" class="fil84" d="M11494 5153l0 3239 3239 0 0 -3239 -3239 0zm-10 -10l3259 0 0 3260 -3259 0 0 -3260z"/>
       <path id="_234" class="fil85" d="M11487 5146l0 3253 3253 0 0 -3253 -3253 0zm-10 -10l3273 0 0 3274 -3273 0 0 -3274z"/>
       <path id="_235" class="fil85" d="M11480 5139l0 3267 3267 0 0 -3267 -3267 0zm-10 -10l3287 0 0 3288 -3287 0 0 -3288z"/>
       <path id="_236" class="fil85" d="M11473 5132l0 3281 3281 0 0 -3281 -3281 0zm-10 -10l3301 0 0 3302 -3301 0 0 -3302z"/>
       <path id="_237" class="fil86" d="M11466 5125l0 3295 3295 0 0 -3295 -3295 0zm-10 -10l3315 0 0 3316 -3315 0 0 -3316z"/>
       <path id="_238" class="fil86" d="M11459 5118l0 3309 3309 0 0 -3309 -3309 0zm-10 -10l3329 0 0 3330 -3329 0 0 -3330z"/>
       <path id="_239" class="fil87" d="M11452 5111l0 3323 3323 0 0 -3323 -3323 0zm-10 -10l3343 0 0 3344 -3343 0 0 -3344z"/>
       <path id="_240" class="fil87" d="M11445 5104l0 3337 3337 0 0 -3337 -3337 0zm-10 -10l3357 0 0 3358 -3357 0 0 -3358z"/>
       <path id="_241" class="fil87" d="M11438 5097l0 3351 3351 0 0 -3351 -3351 0zm-10 -10l3371 0 0 3371 -3371 0 0 -3371z"/>
       <path id="_242" class="fil88" d="M11431 5090l0 3365 3365 0 0 -3365 -3365 0zm-10 -10l3385 0 0 3385 -3385 0 0 -3385z"/>
       <path id="_243" class="fil88" d="M11424 5083l0 3379 3379 0 0 -3379 -3379 0zm-10 -10l3399 0 0 3399 -3399 0 0 -3399z"/>
       <path id="_244" class="fil89" d="M11417 5076l0 3393 3393 0 0 -3393 -3393 0zm-10 -10l3413 0 0 3413 -3413 0 0 -3413z"/>
       <path id="_245" class="fil90" d="M11410 5069l0 3407 3407 0 0 -3407 -3407 0zm-10 -10l3427 0 0 3427 -3427 0 0 -3427z"/>
       <path id="_246" class="fil90" d="M11403 5062l0 3421 3421 0 0 -3421 -3421 0zm-10 -10l3441 0 0 3441 -3441 0 0 -3441z"/>
       <path id="_247" class="fil90" d="M11396 5056l0 3434 3435 0 0 -3434 -3435 0zm-10 -11l3455 0 0 3455 -3455 0 0 -3455z"/>
       <path id="_248" class="fil90" d="M11389 5049l0 3448 3449 0 0 -3448 -3449 0zm-10 -11l3469 0 0 3469 -3469 0 0 -3469z"/>
       <path id="_249" class="fil91" d="M11382 5042l0 3462 3463 0 0 -3462 -3463 0zm-10 -11l3483 0 0 3483 -3483 0 0 -3483z"/>
       <path id="_250" class="fil92" d="M11375 5035l0 3476 3477 0 0 -3476 -3477 0zm-10 -11l3497 0 0 3497 -3497 0 0 -3497z"/>
       <path id="_251" class="fil92" d="M11368 5028l0 3490 3491 0 0 -3490 -3491 0zm-10 -11l3511 0 0 3511 -3511 0 0 -3511z"/>
       <path id="_252" class="fil93" d="M11361 5021l0 3504 3505 0 0 -3504 -3505 0zm-10 -11l3525 0 0 3525 -3525 0 0 -3525z"/>
       <path id="_253" class="fil94" d="M11354 5014l0 3518 3519 0 0 -3518 -3519 0zm-10 -11l3539 0 0 3539 -3539 0 0 -3539z"/>
       <path id="_254" class="fil8" d="M11347 5007l0 3532 3533 0 0 -3532 -3533 0zm-10 -11l3553 0 0 3553 -3553 0 0 -3553z"/>
       <path id="_255" class="fil8" d="M11340 5000l0 3546 3547 0 0 -3546 -3547 0zm-10 -11l3567 0 0 3567 -3567 0 0 -3567z"/>
       <path id="_256" class="fil8" d="M11333 4993l0 3560 3561 0 0 -3560 -3561 0zm-7 -7l3574 0 0 3574 -3574 0 0 -3574z"/>
      </g>
     </g>
     <path class="fil95" d="M13113 4986c987,0 1787,800 1787,1787 0,987 -800,1787 -1787,1787 -986,0 -1787,-800 -1787,-1787 0,-987 801,-1787 1787,-1787z"/>
    </g>
    <circle class="fil9 str0" cx="13113" cy="6773" r="1366"/>
   </g>
  </g>
 </g>
</svg>
