<svg id="Warstwa_1" data-name="Warstwa 1" xmlns="http://www.w3.org/2000/svg" xmlns:xlink="http://www.w3.org/1999/xlink" width="1024" height="1024" viewBox="0 0 1024 1024"><defs><style>.cls-1{fill:none;}.cls-10,.cls-11,.cls-12,.cls-13,.cls-14,.cls-15,.cls-16,.cls-17,.cls-18,.cls-19,.cls-2,.cls-20,.cls-21,.cls-22,.cls-23,.cls-24,.cls-25,.cls-26,.cls-27,.cls-28,.cls-29,.cls-30,.cls-31,.cls-32,.cls-33,.cls-34,.cls-35,.cls-36,.cls-37,.cls-38,.cls-39,.cls-4,.cls-40,.cls-41,.cls-42,.cls-43,.cls-44,.cls-45,.cls-46,.cls-47,.cls-48,.cls-49,.cls-5,.cls-50,.cls-51,.cls-52,.cls-53,.cls-54,.cls-55,.cls-56,.cls-57,.cls-58,.cls-59,.cls-6,.cls-60,.cls-61,.cls-62,.cls-63,.cls-64,.cls-65,.cls-66,.cls-67,.cls-68,.cls-69,.cls-7,.cls-70,.cls-71,.cls-72,.cls-73,.cls-74,.cls-75,.cls-77,.cls-78,.cls-79,.cls-8,.cls-80,.cls-81,.cls-82,.cls-9{fill-rule:evenodd;}.cls-2{fill:url(#Gradient_bez_nazwy_3);}.cls-3{clip-path:url(#clip-path);}.cls-4{fill:#d7ca4a;}.cls-5,.cls-76{fill:#feeb1a;}.cls-6{fill:#fdeb18;}.cls-7{fill:#feeb14;}.cls-8{fill:#fcea15;}.cls-9{fill:#fdeb11;}.cls-10{fill:#fcea0e;}.cls-11{fill:#fbea0f;}.cls-12{fill:#fbe80c;}.cls-13{fill:#f9e709;}.cls-14{fill:#f9e606;}.cls-15{fill:#f7e50e;}.cls-16{fill:#f8e508;}.cls-17{fill:#f7e509;}.cls-18{fill:#f7e306;}.cls-19{fill:#f6e208;}.cls-20{fill:#f5e10a;}.cls-21{fill:#f4e10b;}.cls-22{fill:#f3e10c;}.cls-23{fill:#f3e00d;}.cls-24{fill:#f2df0f;}.cls-25{fill:#f2df13;}.cls-26{fill:#f2df16;}.cls-27{fill:#f2de16;}.cls-28{fill:#f1de17;}.cls-29{fill:#f0dd1b;}.cls-30{fill:#efdd20;}.cls-31{fill:#efdc1e;}.cls-32{fill:#efdc20;}.cls-33{fill:#efdc22;}.cls-34{fill:#eedb23;}.cls-35{fill:#eedb25;}.cls-36{fill:#edda25;}.cls-37{fill:#edda29;}.cls-38{fill:#edd92a;}.cls-39{fill:#edd92b;}.cls-40{fill:#ead82c;}.cls-41{fill:#ead82e;}.cls-42{fill:#ebd831;}.cls-43{fill:#ead831;}.cls-44{fill:#ead731;}.cls-45{fill:#ead733;}.cls-46{fill:#e9d733;}.cls-47{fill:#e8d632;}.cls-48{fill:#e7d535;}.cls-49{fill:#e6d434;}.cls-50{fill:#e7d635;}.cls-51{fill:#e6d435;}.cls-52{fill:#e4d436;}.cls-53{fill:#e4d438;}.cls-54{fill:#e2d138;}.cls-55{fill:#e2d139;}.cls-56{fill:#e2d23b;}.cls-57{fill:#e1d13b;}.cls-58{fill:#e1d13c;}.cls-59{fill:#dfd03f;}.cls-60{fill:#e0d03f;}.cls-61{fill:#e0cf3f;}.cls-62{fill:#decf3f;}.cls-63{fill:#ddce40;}.cls-64{fill:#ddce41;}.cls-65{fill:#ddcd44;}.cls-66{fill:#ddce44;}.cls-67{fill:#dbcc44;}.cls-68{fill:#d9cc44;}.cls-69{fill:#d9cc46;}.cls-70{fill:#dacb45;}.cls-71{fill:#dacb48;}.cls-72{fill:#d8cb48;}.cls-73{fill:#d8cb49;}.cls-74{fill:#d9cb49;}.cls-75{fill:#d8ca49;}.cls-76{stroke:#feeb1a;stroke-miterlimit:10;stroke-width:0.57px;}.cls-77{fill:url(#Gradient_bez_nazwy_12);}.cls-78{fill:url(#Gradient_bez_nazwy_11);}.cls-79{fill:url(#Gradient_bez_nazwy_10);}.cls-80{fill:url(#Gradient_bez_nazwy_10-2);}.cls-81{fill:url(#Gradient_bez_nazwy_9);}.cls-82{fill:#9f9d25;}</style><linearGradient id="Gradient_bez_nazwy_3" x1="17908.51" y1="-22215.47" x2="18161.59" y2="17769.62" gradientTransform="matrix(0.03, 0, 0, -0.03, 0.97, 30.06)" gradientUnits="userSpaceOnUse"><stop offset="0" stop-color="#ffd741"/><stop offset="0.99" stop-color="#62acc4"/><stop offset="1" stop-color="#cdcf2c"/></linearGradient><clipPath id="clip-path"><circle id="SVGID" class="cls-1" cx="393.07" cy="290.23" r="111.5"/></clipPath><linearGradient id="Gradient_bez_nazwy_12" x1="13857.05" y1="-26829.8" x2="14463.85" y2="-7250.38" gradientTransform="matrix(0.03, 0, 0, -0.03, 0.97, 30.06)" gradientUnits="userSpaceOnUse"><stop offset="0" stop-color="#9d9c24"/><stop offset="0.92" stop-color="#cdcd8f"/><stop offset="1" stop-color="#fff"/></linearGradient><linearGradient id="Gradient_bez_nazwy_11" x1="14006.32" y1="-26039.32" x2="14604.38" y2="-8381.67" gradientTransform="matrix(0.03, 0, 0, -0.03, 0.97, 30.06)" gradientUnits="userSpaceOnUse"><stop offset="0" stop-color="#9d9c24"/><stop offset="0.91" stop-color="#cdcd8f"/><stop offset="1" stop-color="#fff"/></linearGradient><linearGradient id="Gradient_bez_nazwy_10" x1="19939.72" y1="-26145.77" x2="20762.2" y2="-1495.1" gradientTransform="matrix(0.03, 0, 0, -0.03, 0.97, 30.06)" gradientUnits="userSpaceOnUse"><stop offset="0" stop-color="#9d9c24"/><stop offset="0.83" stop-color="#cdcd8f"/><stop offset="1" stop-color="#fff"/></linearGradient><linearGradient id="Gradient_bez_nazwy_10-2" x1="19655.85" y1="-24020.54" x2="20121.1" y2="-10076.21" xlink:href="#Gradient_bez_nazwy_10"/><linearGradient id="Gradient_bez_nazwy_9" x1="25536.58" y1="-23837.4" x2="28522.12" y2="-2888.87" gradientTransform="matrix(0.03, 0, 0, -0.03, 0.97, 30.06)" gradientUnits="userSpaceOnUse"><stop offset="0" stop-color="#9d9c24"/><stop offset="0.79" stop-color="#cdcd8f"/><stop offset="1" stop-color="#fff"/></linearGradient></defs><path class="cls-2" d="M-21.85-22.88H998.49C1022-22.88,1041-12,1041,1.44V1035.25c.13,13.5-18.85,24.39-42.5,24.39H20.66c.11,9.79-42.49-24-42.51-24.31"/><g class="cls-3"><polygon class="cls-4" points="281.57 178.73 504.57 178.73 504.57 401.73 281.57 401.73 281.57 178.73"/><polygon id="_1" data-name="1" class="cls-5" points="392.45 289.54 393.76 289.54 393.76 290.86 392.45 290.86 392.45 289.54"/><path id="_2" data-name="2" class="cls-5" d="M392.7,289.79v.88h.81v-.88Zm-.69-.68h2.18v2.18H392Z"/><path id="_3" data-name="3" class="cls-5" d="M392.26,289.36v1.74h1.68v-1.74Zm-.69-.69h3.06v3.06h-3.06Z"/><path id="_4" data-name="4" class="cls-5" d="M391.82,288.92v2.62h2.56v-2.62Zm-.68-.69h3.93v3.94h-3.93Z"/><path id="_5" data-name="5" class="cls-5" d="M391.39,288.48V292h3.43v-3.5Zm-.69-.68h4.8v4.8h-4.8Z"/><path id="_6" data-name="6" class="cls-6" d="M391,288.05v4.36h4.3v-4.36Zm-.69-.69h5.68V293h-5.68Z"/><path id="_7" data-name="7" class="cls-6" d="M390.51,287.61v5.24h5.18v-5.24Zm-.68-.69h6.55v6.56h-6.55Z"/><path id="_8" data-name="8" class="cls-7" d="M390.08,287.17v6.12h6.05v-6.12Zm-.69-.68h7.42v7.42h-7.42Z"/><path id="_9" data-name="9" class="cls-7" d="M389.64,286.74v7h6.92v-7Zm-.69-.69h8.3v8.3H389Z"/><path id="_10" data-name="10" class="cls-7" d="M389.2,286.3v7.86H397V286.3Zm-.68-.69h9.17v9.18h-9.17Z"/><path id="_11" data-name="11" class="cls-7" d="M388.77,285.86v8.74h8.67v-8.74Zm-.69-.68h10v10h-10Z"/><path id="_12" data-name="12" class="cls-7" d="M388.33,285.43V295h9.55v-9.54Zm-.69-.69h10.92v10.92H387.64Z"/><path id="_13" data-name="13" class="cls-7" d="M387.89,285v10.42h10.42V285Zm-.68-.69H399v11.8H387.21Z"/><path id="_14" data-name="14" class="cls-7" d="M387.46,284.55v11.3h11.29v-11.3Zm-.69-.68h12.67v12.66H386.77Z"/><path id="_15" data-name="15" class="cls-7" d="M387,284.12v12.16h12.17V284.12Zm-.69-.63h13.54V297H386.33Z"/><path id="_16" data-name="16" class="cls-8" d="M386.58,283.68v13h13v-13Zm-.68-.62h14.41v14.35H385.9Z"/><path id="_17" data-name="17" class="cls-8" d="M386.14,283.24v13.92h13.92V283.24Zm-.68-.62h15.29v15.22H385.46Z"/><path id="_18" data-name="18" class="cls-8" d="M385.71,282.81v14.78H400.5V282.81Zm-.69-.63h16.16v16.1H385Z"/><path id="_19" data-name="19" class="cls-8" d="M385.27,282.37V298h15.66V282.37Zm-.68-.62h17v17h-17Z"/><path id="_20" data-name="20" class="cls-8" d="M384.83,281.93v16.54h16.54V281.93Zm-.68-.62h17.91v17.84H384.15Z"/><path id="_21" data-name="21" class="cls-9" d="M384.4,281.5v17.4h17.41V281.5Zm-.69-.63h18.78v18.72H383.71Z"/><path id="_22" data-name="22" class="cls-9" d="M384,281.06v18.28h18.28V281.06Zm-.69-.63h19.66V300H383.27Z"/><path id="_23" data-name="23" class="cls-9" d="M383.52,280.62v19.16h19.16V280.62Zm-.68-.62h20.53v20.46H382.84Z"/><path id="_24" data-name="24" class="cls-9" d="M383.09,280.19v20h20v-20Zm-.69-.63h21.4V300.9H382.4Z"/><path id="_25" data-name="25" class="cls-9" d="M382.65,279.75v20.9h20.9v-20.9Zm-.69-.63h22.22v22.22H382Z"/><path id="_26" data-name="26" class="cls-10" d="M382.21,279.31v21.78H404V279.31Zm-.62-.62h23v23.08h-23Z"/><path id="_27" data-name="27" class="cls-10" d="M381.78,278.87v22.65h22.65V278.87Zm-.63-.62h23.9v24h-23.9Z"/><path id="_28" data-name="28" class="cls-10" d="M381.34,278.44V302h23.52V278.44Zm-.62-.63h24.77v24.84H380.72Z"/><path id="_29" data-name="29" class="cls-11" d="M380.9,278v24.4h24.4V278Zm-.62-.62h25.64v25.7H380.28Z"/><path id="_30" data-name="30" class="cls-11" d="M380.47,277.56v25.27h25.27V277.56Zm-.63-.62h26.52v26.58H379.84Z"/><path id="_31" data-name="31" class="cls-11" d="M380,277.13v26.14h26.14V277.13Zm-.62-.63H406.8V304H379.41Z"/><path id="_32" data-name="32" class="cls-11" d="M379.59,276.69v27h27v-27Zm-.62-.62h28.26v28.32H379Z"/><path id="_33" data-name="33" class="cls-11" d="M379.16,276.25v27.89h27.89V276.25Zm-.63-.62h29.14v29.2H378.53Z"/><path id="_34" data-name="34" class="cls-11" d="M378.72,275.82v28.76h28.76V275.82Zm-.62-.63h30v30.08h-30Z"/><path id="_35" data-name="35" class="cls-12" d="M378.28,275.38V305h29.64V275.38Zm-.62-.62h30.88V305.7H377.66Z"/><path id="_36" data-name="36" class="cls-13" d="M377.85,274.94v30.52h30.51V274.94Zm-.63-.62H409v31.76H377.22Z"/><path id="_37" data-name="37" class="cls-13" d="M377.41,274.51v31.38h31.38V274.51Zm-.62-.63h32.63v32.64H376.79Z"/><path id="_38" data-name="38" class="cls-13" d="M377,274.07v32.26h32.26V274.07Zm-.62-.62h33.51V307H376.35Z"/><path id="_39" data-name="39" class="cls-13" d="M376.54,273.63v33.14h33.13V273.63Zm-.63-.62h34.38v34.38H375.91Z"/><path id="_40" data-name="40" class="cls-13" d="M376.1,273.2v34h34v-34Zm-.62-.63h35.25v35.26H375.48Z"/><path id="_41" data-name="41" class="cls-13" d="M375.66,272.76v34.88h34.88V272.76Zm-.62-.62h36.13v36.12H375Z"/><path id="_42" data-name="42" class="cls-13" d="M375.23,272.39v35.69H411V272.39Zm-.63-.69h37v37h-37Z"/><path id="_43" data-name="43" class="cls-13" d="M374.79,272v36.56h36.62V272Zm-.62-.69H412v37.88H374.17Z"/><path id="_44" data-name="44" class="cls-13" d="M374.35,271.51V309h37.5V271.51Zm-.62-.68h38.75v38.74H373.73Z"/><path id="_45" data-name="45" class="cls-13" d="M373.92,271.08v38.31h38.37V271.08Zm-.63-.69h39.62V310H373.29Z"/><path id="_46" data-name="46" class="cls-14" d="M373.48,270.64v39.18h39.25V270.64Zm-.63-.69h40.5v40.5h-40.5Z"/><path id="_47" data-name="47" class="cls-14" d="M373,270.2v40.06h40.12V270.2Zm-.62-.68h41.37v41.36H372.42Z"/><path id="_48" data-name="48" class="cls-14" d="M372.61,269.77V310.7h41V269.77Zm-.63-.69h42.24v42.24H372Z"/><path id="_49" data-name="49" class="cls-14" d="M372.17,269.33v41.8H414v-41.8Zm-.63-.69h43.12v43.12H371.54Z"/><path id="_50" data-name="50" class="cls-14" d="M371.73,268.89v42.68h42.74V268.89Zm-.62-.68h44v44h-44Z"/><path id="_51" data-name="51" class="cls-14" d="M371.29,268.45V312h43.62V268.45Zm-.62-.68h44.86v44.86H370.67Z"/><path id="_52" data-name="52" class="cls-15" d="M370.86,268v44.42h44.42V268Zm-.63-.69H416v45.74H370.23Z"/><path id="_53" data-name="53" class="cls-15" d="M370.48,267.58v45.3h45.24v-45.3Zm-.68-.68h46.61v46.6H369.8Z"/><path id="_54" data-name="54" class="cls-15" d="M370.05,267.14v46.18h46.11V267.14Zm-.69-.68h47.48v47.48H369.36Z"/><path id="_55" data-name="55" class="cls-16" d="M369.61,266.71v47h47v-47Zm-.69-.69h48.36v48.36H368.92Z"/><path id="_56" data-name="56" class="cls-16" d="M369.17,266.27v47.92H417V266.27Zm-.68-.69h49.23v49.23H368.49Z"/><path id="_57" data-name="57" class="cls-16" d="M368.74,265.83v48.8h48.73v-48.8Zm-.69-.68h50.1v50.1h-50.1Z"/><path id="_58" data-name="58" class="cls-16" d="M368.3,265.4v49.66h49.6V265.4Zm-.69-.69h51v51h-51Z"/><path id="_59" data-name="59" class="cls-17" d="M367.86,265V315.5h50.48V265Zm-.68-.69H419v51.85H367.18Z"/><path id="_60" data-name="60" class="cls-17" d="M367.43,264.52v51.42h51.35V264.52Zm-.69-.68h52.72v52.72H366.74Z"/><path id="_61" data-name="61" class="cls-17" d="M367,264.09v52.28h52.22V264.09Zm-.69-.69h53.6V317H366.3Z"/><path id="_62" data-name="62" class="cls-18" d="M366.55,263.65v53.16h53.1V263.65Zm-.68-.69h54.47v54.48H365.87Z"/><path id="_63" data-name="63" class="cls-18" d="M366.12,263.21v54h54v-54Zm-.69-.68h55.34v55.34H365.43Z"/><path id="_64" data-name="64" class="cls-18" d="M365.68,262.78v54.84h54.84V262.78Zm-.69-.69h56.22v56.22H365Z"/><path id="_65" data-name="65" class="cls-19" d="M365.24,262.34v55.72H421V262.34Zm-.68-.69h57.09v57.1H364.56Z"/><path id="_66" data-name="66" class="cls-19" d="M364.81,261.9v56.6H421.4V261.9Zm-.69-.62h58v57.9h-58Z"/><path id="_67" data-name="67" class="cls-19" d="M364.37,261.47v57.46h57.46V261.47Zm-.69-.63h58.84v58.78H363.68Z"/><path id="_68" data-name="68" class="cls-19" d="M363.93,261v58.34h58.34V261Zm-.68-.62H423v59.65H363.25Z"/><path id="_69" data-name="69" class="cls-19" d="M363.5,260.59v59.22h59.21V260.59Zm-.69-.62h60.58v60.52H362.81Z"/><path id="_70" data-name="70" class="cls-19" d="M363.06,260.16v60.08h60.09V260.16Zm-.69-.63h61.46v61.4H362.37Z"/><path id="_71" data-name="71" class="cls-19" d="M362.62,259.72v61h61v-61Zm-.68-.62h62.33v62.27H361.94Z"/><path id="_72" data-name="72" class="cls-19" d="M362.19,259.28v61.84H424V259.28Zm-.69-.62h63.21V321.8H361.5Z"/><path id="_73" data-name="73" class="cls-19" d="M361.75,258.85v62.7h62.71v-62.7Zm-.69-.63h64.08v64H361.06Z"/><path id="_74" data-name="74" class="cls-19" d="M361.31,258.41V322h63.58V258.41Zm-.68-.62h64.95v64.89H360.63Z"/><path id="_75" data-name="75" class="cls-20" d="M360.87,258v64.46h64.46V258Zm-.68-.62H426v65.76H360.19Z"/><path id="_76" data-name="76" class="cls-20" d="M360.44,257.54v65.32h65.33V257.54Zm-.69-.63h66.64v66.64H359.75Z"/><path id="_77" data-name="77" class="cls-20" d="M360,257.1v66.2h66.2V257.1Zm-.62-.62h67.45V324H359.38Z"/><path id="_78" data-name="78" class="cls-20" d="M359.56,256.66v67.08h67.08V256.66Zm-.62-.62h68.32v68.38H358.94Z"/><path id="_79" data-name="79" class="cls-20" d="M359.13,256.23v67.94h67.95V256.23Zm-.63-.63h69.2v69.26H358.5Z"/><path id="_80" data-name="80" class="cls-20" d="M358.69,255.79v68.82h68.82V255.79Zm-.62-.63h70.07V325.3H358.07Z"/><path id="_81" data-name="81" class="cls-20" d="M358.25,255.35v69.7H428v-69.7Zm-.62-.62h70.94v71H357.63Z"/><path id="_82" data-name="82" class="cls-20" d="M357.82,254.92v70.56h70.57V254.92Zm-.63-.63H429v71.88H357.19Z"/><path id="_83" data-name="83" class="cls-21" d="M357.38,254.48v71.44h71.44V254.48Zm-.62-.63h72.69v72.76H356.76Z"/><path id="_84" data-name="84" class="cls-21" d="M356.94,254v72.32h72.32V254Zm-.62-.62h73.56V327H356.32Z"/><path id="_85" data-name="85" class="cls-22" d="M356.51,253.6v73.19H429.7V253.6Zm-.63-.62h74.44v74.5H355.88Z"/><path id="_86" data-name="86" class="cls-22" d="M356.07,253.17v74.06h74.06V253.17Zm-.62-.63h75.31v75.38H355.45Z"/><path id="_87" data-name="87" class="cls-22" d="M355.63,252.73v74.94h74.94V252.73Zm-.62-.62h76.18v76.18H355Z"/><path id="_88" data-name="88" class="cls-22" d="M355.2,252.29V328.1H431V252.29Zm-.63-.62h77.06v77.06H354.57Z"/><path id="_89" data-name="89" class="cls-23" d="M354.76,251.86v76.68h76.68V251.86Zm-.62-.63h77.93v77.94H354.14Z"/><path id="_90" data-name="90" class="cls-23" d="M354.32,251.42V329h77.56V251.42Zm-.62-.62h78.8v78.8H353.7Z"/><path id="_91" data-name="91" class="cls-23" d="M353.89,251v78.43h78.43V251Zm-.63-.62h79.68V330H353.26Z"/><path id="_92" data-name="92" class="cls-23" d="M353.45,250.55v79.3h79.3v-79.3Zm-.62-.63h80.55v80.56H352.83Z"/><path id="_93" data-name="93" class="cls-23" d="M353,250.17v80.12h80.18V250.17Zm-.62-.68h81.42v81.42H352.39Z"/><path id="_94" data-name="94" class="cls-23" d="M352.58,249.74v81h81.05v-81Zm-.63-.69h82.3v82.3H352Z"/><path id="_95" data-name="95" class="cls-24" d="M352.14,249.3v81.86h81.92V249.3Zm-.62-.69h83.17v83.18H351.52Z"/><path id="_96" data-name="96" class="cls-24" d="M351.7,248.86V331.6h82.8V248.86Zm-.62-.68h84.05v84H351.08Z"/><path id="_97" data-name="97" class="cls-24" d="M351.27,248.43V332h83.67V248.43Zm-.63-.69h84.92v84.92H350.64Z"/><path id="_98" data-name="98" class="cls-25" d="M350.83,248v84.48h84.54V248Zm-.62-.69H436v85.8H350.21Z"/><path id="_99" data-name="99" class="cls-25" d="M350.39,247.55v85.36h85.42V247.55Zm-.62-.68h86.67v86.66H349.77Z"/><path id="_100" data-name="100" class="cls-25" d="M350,247.12v86.23h86.29V247.12Zm-.63-.69h87.54V334H349.33Z"/><path id="_101" data-name="101" class="cls-26" d="M349.52,246.68v87.1h87.16v-87.1Zm-.62-.69h88.41v88.42H348.9Z"/><path id="_102" data-name="102" class="cls-27" d="M349.08,246.24v88h88v-88Zm-.62-.68h89.29v89.28H348.46Z"/><path id="_103" data-name="103" class="cls-27" d="M348.65,245.81v88.85h88.91V245.81Zm-.63-.69h90.16v90.16H348Z"/><path id="_104" data-name="104" class="cls-28" d="M348.27,245.37v89.72h89.66V245.37Zm-.69-.69h91v91h-91Z"/><path id="_105" data-name="105" class="cls-28" d="M347.83,244.93v90.6h90.54v-90.6Zm-.68-.68h91.91v91.9H347.15Z"/><path id="_106" data-name="106" class="cls-29" d="M347.4,244.5V336h91.41V244.5Zm-.69-.69h92.78v92.78H346.71Z"/><path id="_107" data-name="107" class="cls-29" d="M347,244.06V336.4h92.28V244.06Zm-.69-.69h93.66V337H346.27Z"/><path id="_108" data-name="108" class="cls-29" d="M346.52,243.62v93.22h93.16V243.62Zm-.68-.68h94.53v94.52H345.84Z"/><path id="_109" data-name="109" class="cls-29" d="M346.09,243.18v94.1h94v-94.1Zm-.69-.68h95.4v95.4H345.4Z"/><path id="_110" data-name="110" class="cls-29" d="M345.65,242.75v95h94.9v-95Zm-.69-.69h96.28v96.28H345Z"/><path id="_111" data-name="111" class="cls-30" d="M345.21,242.31v95.84H441V242.31Zm-.68-.68h97.15v97.14H344.53Z"/><path id="_112" data-name="112" class="cls-30" d="M344.78,241.87v96.72h96.65V241.87Zm-.69-.68h98v98h-98Z"/><path id="_113" data-name="113" class="cls-30" d="M344.34,241.44V339h97.52V241.44Zm-.69-.69h98.9v98.9h-98.9Z"/><path id="_114" data-name="114" class="cls-31" d="M343.9,241v98.4h98.4V241Zm-.68-.69H443v99.77H343.22Z"/><path id="_115" data-name="115" class="cls-31" d="M343.47,240.56v99.27h99.27V240.56Zm-.69-.68H443.42V340.52H342.78Z"/><path id="_116" data-name="116" class="cls-32" d="M343,240.13V340.27H443.17V240.13Zm-.69-.69H443.86V341H342.34Z"/><path id="_117" data-name="117" class="cls-32" d="M342.59,239.69v101h101v-101Zm-.68-.69H444.3V341.39H341.91Z"/><path id="_118" data-name="118" class="cls-32" d="M342.16,239.25v101.9H444.05V239.25Zm-.69-.62H444.73v103.2H341.47Z"/><path id="_119" data-name="119" class="cls-32" d="M341.72,238.82V341.58H444.48V238.82Zm-.69-.63H445.17V342.27H341Z"/><path id="_120" data-name="120" class="cls-32" d="M341.28,238.38V342H444.92V238.38Zm-.68-.62h105v105h-105Z"/><path id="_121" data-name="121" class="cls-33" d="M340.85,237.94V342.46H445.36V237.94Zm-.69-.62H446V343.14H340.16Z"/><path id="_122" data-name="122" class="cls-33" d="M340.41,237.51V342.89H445.79V237.51Zm-.69-.63H446.48v106.7H339.72Z"/><path id="_123" data-name="123" class="cls-33" d="M340,237.07V343.33H446.23V237.07Zm-.68-.62H446.92V344H339.29Z"/><path id="_124" data-name="124" class="cls-34" d="M339.54,236.63V343.77H446.67V236.63Zm-.69-.62h108.5V344.45H338.85Z"/><path id="_125" data-name="125" class="cls-34" d="M339.1,236.2v108h108v-108Zm-.69-.63H447.79V344.89H338.41Z"/><path id="_126" data-name="126" class="cls-35" d="M338.66,235.76V344.64H447.54V235.76Zm-.68-.62H448.23V345.33H338Z"/><path id="_127" data-name="127" class="cls-35" d="M338.23,235.32V345.08H448V235.32Zm-.69-.62H448.66V345.76H337.54Z"/><path id="_128" data-name="128" class="cls-35" d="M337.79,234.89V345.51H448.42V234.89Zm-.63-.63H449V346.2H337.16Z"/><path id="_129" data-name="129" class="cls-36" d="M337.35,234.45V346h111.5V234.45Zm-.62-.62H449.48V346.64H336.73Z"/><path id="_130" data-name="130" class="cls-36" d="M336.92,234V346.39H449.29V234Zm-.63-.62H449.91V347.07H336.29Z"/><path id="_131" data-name="131" class="cls-36" d="M336.48,233.58V346.82H449.73V233.58Zm-.63-.63h114.5V347.51H335.85Z"/><path id="_132" data-name="132" class="cls-37" d="M336,233.14V347.26H450.16V233.14Zm-.62-.62H450.79V348H335.42Z"/><path id="_133" data-name="133" class="cls-37" d="M335.6,232.7v115h115v-115Zm-.62-.62H451.22v116.3H335Z"/><path id="_134" data-name="134" class="cls-37" d="M335.17,232.27V348.13H451V232.27Zm-.63-.63H451.66V348.82H334.54Z"/><path id="_135" data-name="135" class="cls-37" d="M334.73,231.83V348.57H451.47V231.83Zm-.62-.62h118v118h-118Z"/><path id="_136" data-name="136" class="cls-37" d="M334.29,231.39V349H451.91V231.39Zm-.62-.62H452.53V349.69H333.67Z"/><path id="_137" data-name="137" class="cls-38" d="M333.86,231V349.44H452.35V231Zm-.63-.63H453v119.8H333.23Z"/><path id="_138" data-name="138" class="cls-38" d="M333.42,230.52V349.88H452.78V230.52Zm-.62-.63H453.41V350.57H332.8Z"/><path id="_139" data-name="139" class="cls-38" d="M333,230.08V350.32H453.22V230.08Zm-.62-.62H453.84V350.94H332.36Z"/><path id="_140" data-name="140" class="cls-38" d="M332.55,229.65v121.1H453.66V229.65Zm-.63-.63H454.28V351.38H331.92Z"/><path id="_141" data-name="141" class="cls-38" d="M332.11,229.21v122h122v-122Zm-.62-.63H454.72V351.81H331.49Z"/><path id="_142" data-name="142" class="cls-39" d="M331.67,228.77V351.63H454.53V228.77Zm-.62-.62h124.1v124.1H331.05Z"/><path id="_143" data-name="143" class="cls-39" d="M331.24,228.33V352.06H455V228.33Zm-.63-.62h125v125h-125Z"/><path id="_144" data-name="144" class="cls-40" d="M330.8,227.9V352.5H455.4V227.9Zm-.62-.63H456V353.13H330.18Z"/><path id="_145" data-name="145" class="cls-40" d="M330.36,227.52V352.94H455.84V227.52Zm-.62-.68H456.46V353.56H329.74Z"/><path id="_146" data-name="146" class="cls-40" d="M329.93,227.09V353.37H456.28V227.09Zm-.63-.69H456.9V354H329.3Z"/><path id="_147" data-name="147" class="cls-41" d="M329.49,226.65V353.81H456.71V226.65Zm-.62-.69H457.34V354.44H328.87Z"/><path id="_148" data-name="148" class="cls-41" d="M329.05,226.21v128h128.1v-128Zm-.62-.68H457.77V354.87H328.43Z"/><path id="_149" data-name="149" class="cls-41" d="M328.62,225.78v128.9h129V225.78Zm-.63-.69H458.21V355.31H328Z"/><path id="_150" data-name="150" class="cls-41" d="M328.18,225.34V355.12H458V225.34Zm-.62-.69H458.65v131.1H327.56Z"/><path id="_151" data-name="151" class="cls-41" d="M327.74,224.9V355.56H458.46V224.9Zm-.62-.68h132v132h-132Z"/><path id="_152" data-name="152" class="cls-42" d="M327.31,224.47V356H458.9V224.47Zm-.63-.69H459.52V356.62H326.68Z"/><path id="_153" data-name="153" class="cls-42" d="M326.87,224v132.4H459.33V224Zm-.62-.69H460V357.06H326.25Z"/><path id="_154" data-name="154" class="cls-43" d="M326.43,223.59V356.87H459.77V223.59Zm-.62-.68H460.4V357.49H325.81Z"/><path id="_155" data-name="155" class="cls-43" d="M326,223.16V357.31H460.15V223.16Zm-.63-.69H460.83V357.93H325.37Z"/><path id="_156" data-name="156" class="cls-44" d="M325.62,222.72v135h135v-135Zm-.68-.69H461.27V358.37H324.94Z"/><path id="_157" data-name="157" class="cls-45" d="M325.18,222.28v135.9H461V222.28Zm-.68-.68H461.71V358.8H324.5Z"/><path id="_158" data-name="158" class="cls-45" d="M324.75,221.85V358.62H461.46V221.85Zm-.69-.69H462.14V359.24H324.06Z"/><path id="_159" data-name="159" class="cls-45" d="M324.31,221.41V359.05H461.89V221.41Zm-.68-.69h139v139H323.63Z"/><path id="_160" data-name="160" class="cls-46" d="M323.87,221V359.49H462.33V221Zm-.68-.68H463V360.11H323.19Z"/><path id="_161" data-name="161" class="cls-46" d="M323.44,220.54V359.93H462.77V220.54Zm-.69-.69h140.7v140.7H322.75Z"/><path id="_162" data-name="162" class="cls-46" d="M323,220.1V360.36H463.2V220.1Zm-.69-.69H463.89V361H322.31Z"/><path id="_163" data-name="163" class="cls-47" d="M322.56,219.66V360.8H463.64V219.66Zm-.68-.68H464.33V361.42H321.88Z"/><path id="_164" data-name="164" class="cls-47" d="M322.13,219.23v142h142v-142Zm-.69-.69H464.76V361.86H321.44Z"/><path id="_165" data-name="165" class="cls-47" d="M321.69,218.79V361.67H464.51V218.79Zm-.69-.69H465.2V362.3H321Z"/><path id="_166" data-name="166" class="cls-47" d="M321.25,218.35v143.7H465V218.35Zm-.68-.68H465.64V362.73H320.57Z"/><path id="_167" data-name="167" class="cls-48" d="M320.82,217.91V362.48H465.39V217.91Zm-.69-.68H466.07V363.17H320.13Z"/><path id="_168" data-name="168" class="cls-48" d="M320.38,217.48V362.92H465.82V217.48Zm-.69-.69H466.51V363.61H319.69Z"/><path id="_169" data-name="169" class="cls-49" d="M319.94,217V363.36H466.26V217Zm-.68-.62H467V364H319.26Z"/><path id="_170" data-name="170" class="cls-49" d="M319.51,216.6V363.79H466.7V216.6Zm-.69-.62H467.38v148.5H318.82Z"/><path id="_171" data-name="171" class="cls-49" d="M319.07,216.17V364.23H467.13V216.17Zm-.69-.63H467.82V364.92H318.38Z"/><path id="_172" data-name="172" class="cls-50" d="M318.63,215.73V364.67H467.57V215.73Zm-.68-.62H468.26V365.35H318Z"/><path id="_173" data-name="173" class="cls-51" d="M318.2,215.29V365.1H468V215.29Zm-.69-.62H468.69V365.79H317.51Z"/><path id="_174" data-name="174" class="cls-51" d="M317.76,214.86V365.54H468.44V214.86Zm-.69-.63H469.13v152H317.07Z"/><path id="_175" data-name="175" class="cls-52" d="M317.32,214.42V366H468.88V214.42Zm-.68-.62H469.57V366.66H316.64Z"/><path id="_176" data-name="176" class="cls-52" d="M316.89,214V366.42H469.32V214Zm-.69-.62H470V367.1H316.2Z"/><path id="_177" data-name="177" class="cls-53" d="M316.45,213.55v153.3h153.3V213.55Zm-.69-.63H470.44V367.54H315.76Z"/><path id="_178" data-name="178" class="cls-53" d="M316,213.11V367.29H470.19V213.11Zm-.68-.62H470.88V368H315.33Z"/><path id="_179" data-name="179" class="cls-53" d="M315.58,212.67V367.73H470.63V212.67Zm-.69-.62H471.25V368.41H314.89Z"/><path id="_180" data-name="180" class="cls-53" d="M315.14,212.24V368.16H471.06V212.24Zm-.62-.63H471.69V368.85H314.52Z"/><path id="_181" data-name="181" class="cls-53" d="M314.7,211.8V368.6H471.5V211.8Zm-.62-.62H472.13V369.29h-158Z"/><path id="_182" data-name="182" class="cls-53" d="M314.27,211.36V369H471.94V211.36Zm-.63-.62H472.56v159H313.64Z"/><path id="_183" data-name="183" class="cls-54" d="M313.83,210.93V369.47H472.37V210.93Zm-.62-.63H473V370.16H313.21Z"/><path id="_184" data-name="184" class="cls-54" d="M313.39,210.49V369.91H472.81V210.49Zm-.62-.62H473.44V370.6H312.77Z"/><path id="_185" data-name="185" class="cls-54" d="M313,210.05v160.3H473.25V210.05Zm-.63-.62H473.87V371H312.33Z"/><path id="_186" data-name="186" class="cls-54" d="M312.52,209.62V370.78H473.69V209.62Zm-.63-.63H474.31V371.47H311.89Z"/><path id="_187" data-name="187" class="cls-54" d="M312.08,209.18v162h162v-162Zm-.62-.62H474.75V371.91H311.46Z"/><path id="_188" data-name="188" class="cls-55" d="M311.65,208.74V371.66H474.56V208.74Zm-.63-.62H475.18V372.34H311Z"/><path id="_189" data-name="189" class="cls-55" d="M311.21,208.31V372.09H475V208.31Zm-.63-.63h165v165.1h-165Z"/><path id="_190" data-name="190" class="cls-55" d="M310.77,207.87V372.53H475.43V207.87Zm-.62-.62H476.06v165.9H310.15Z"/><path id="_191" data-name="191" class="cls-55" d="M310.33,207.43V373H475.87V207.43Zm-.62-.62H476.49V373.59H309.71Z"/><path id="_192" data-name="192" class="cls-55" d="M309.9,207V373.4H476.31V207Zm-.63-.63H476.93V374H309.27Z"/><path id="_193" data-name="193" class="cls-56" d="M309.46,206.56V373.84H476.74V206.56Zm-.62-.62H477.37V374.46H308.84Z"/><path id="_194" data-name="194" class="cls-56" d="M309,206.12V374.28H477.18V206.12Zm-.62-.62H477.8V374.9H308.4Z"/><path id="_195" data-name="195" class="cls-56" d="M308.59,205.69v169h169v-169Zm-.63-.63H478.24V375.34H308Z"/><path id="_196" data-name="196" class="cls-57" d="M308.15,205.31V375.15h169.9V205.31Zm-.62-.69H478.68V375.77H307.53Z"/><path id="_197" data-name="197" class="cls-57" d="M307.71,204.87V375.59H478.49V204.87Zm-.62-.68h172v172h-172Z"/><path id="_198" data-name="198" class="cls-58" d="M307.28,204.44V376H478.93V204.44Zm-.63-.69h172.9v172.9H306.65Z"/><path id="_199" data-name="199" class="cls-58" d="M306.84,204V376.46H479.36V204Zm-.62-.69H480V377.08H306.22Z"/><path id="_200" data-name="200" class="cls-58" d="M306.4,203.56V376.9H479.8V203.56Zm-.62-.68H480.42V377.52H305.78Z"/><path id="_201" data-name="201" class="cls-58" d="M306,203.13v174.2H480.24V203.13Zm-.63-.69H480.86V378H305.34Z"/><path id="_202" data-name="202" class="cls-58" d="M305.53,202.69V377.77H480.67V202.69Zm-.62-.69H481.3V378.4H304.91Z"/><path id="_203" data-name="203" class="cls-59" d="M305.09,202.25v176h176v-176Zm-.62-.68H481.73V378.83H304.47Z"/><path id="_204" data-name="204" class="cls-59" d="M304.66,201.82V378.64H481.55V201.82Zm-.63-.69H482.17V379.27H304Z"/><path id="_205" data-name="205" class="cls-59" d="M304.22,201.38v177.7H482V201.38Zm-.62-.69h179v179h-179Z"/><path id="_206" data-name="206" class="cls-59" d="M303.78,200.94V379.52H482.36V200.94Zm-.62-.68H483V380.14H303.16Z"/><path id="_207" data-name="207" class="cls-59" d="M303.41,200.51V380H482.79V200.51Zm-.69-.69H483.48V380.58H302.72Z"/><path id="_208" data-name="208" class="cls-60" d="M303,200.07V380.39H483.23V200.07Zm-.68-.69H483.92V381H302.29Z"/><path id="_209" data-name="209" class="cls-60" d="M302.54,199.63v181.2H483.67V199.63Zm-.69-.68h182.5v182.5H301.85Z"/><path id="_210" data-name="210" class="cls-61" d="M302.1,199.2V381.27h182V199.2Zm-.69-.69H484.79V381.89H301.41Z"/><path id="_211" data-name="211" class="cls-61" d="M301.66,198.76V381.7H484.54V198.76Zm-.68-.69H485.23V382.33H301Z"/><path id="_212" data-name="212" class="cls-62" d="M301.23,198.32V382.14H485V198.32Zm-.69-.68H485.67V382.76H300.54Z"/><path id="_213" data-name="213" class="cls-62" d="M300.79,197.89V382.58H485.42V197.89Zm-.69-.69h186v186h-186Z"/><path id="_214" data-name="214" class="cls-62" d="M300.35,197.45V383h185.5V197.45Zm-.68-.69H486.54V383.64H299.67Z"/><path id="_215" data-name="215" class="cls-62" d="M299.91,197V383.45H486.29V197Zm-.68-.68H487V384.07H299.23Z"/><path id="_216" data-name="216" class="cls-62" d="M299.48,196.58V383.89H486.73V196.58Zm-.69-.69H487.41V384.51H298.79Z"/><path id="_217" data-name="217" class="cls-62" d="M299,196.14V384.26H487.16V196.14Zm-.68-.69H487.85V385H298.36Z"/><path id="_218" data-name="218" class="cls-63" d="M298.6,195.7v189h189v-189Zm-.68-.68H488.29V385.38H297.92Z"/><path id="_219" data-name="219" class="cls-63" d="M298.17,195.27V385.13H488V195.27Zm-.69-.69H488.72V385.82H297.48Z"/><path id="_220" data-name="220" class="cls-63" d="M297.73,194.83V385.57H488.47V194.83Zm-.69-.63H489.16V386.26H297Z"/><path id="_221" data-name="221" class="cls-63" d="M297.29,194.39V386H488.91V194.39Zm-.68-.62h193V386.69h-193Z"/><path id="_222" data-name="222" class="cls-64" d="M296.86,194V386.44H489.35V194Zm-.69-.63H490v193.8H296.17Z"/><path id="_223" data-name="223" class="cls-65" d="M296.42,193.52V386.88H489.78V193.52Zm-.69-.63H490.47V387.57H295.73Z"/><path id="_224" data-name="224" class="cls-65" d="M296,193.08V387.32H490.22V193.08Zm-.68-.62H490.91V388H295.3Z"/><path id="_225" data-name="225" class="cls-65" d="M295.55,192.64V387.75H490.66V192.64Zm-.69-.62H491.34V388.44H294.86Z"/><path id="_226" data-name="226" class="cls-65" d="M295.11,192.21v196h196v-196Zm-.69-.63H491.78v197.3H294.42Z"/><path id="_227" data-name="227" class="cls-65" d="M294.67,191.77V388.63H491.53V191.77Zm-.68-.62H492.22V389.31H294Z"/><path id="_228" data-name="228" class="cls-65" d="M294.24,191.33V389.06H492V191.33Zm-.69-.62h199.1v199H293.55Z"/><path id="_229" data-name="229" class="cls-66" d="M293.8,190.9V389.5H492.4V190.9Zm-.69-.63h200V390.19h-200Z"/><path id="_230" data-name="230" class="cls-66" d="M293.36,190.46V389.94H492.84V190.46Zm-.68-.62H493.46V390.62H292.68Z"/><path id="_231" data-name="231" class="cls-66" d="M292.93,190V390.37H493.28V190Zm-.63-.62H493.9V391.06H292.3Z"/><path id="_232" data-name="232" class="cls-67" d="M292.49,189.59V390.81H493.71V189.59Zm-.62-.63H494.34V391.5H291.87Z"/><path id="_233" data-name="233" class="cls-67" d="M292.05,189.15v202.1h202.1V189.15Zm-.62-.62H494.77v203.4H291.43Z"/><path id="_234" data-name="234" class="cls-67" d="M291.62,188.71v203h203v-203Zm-.63-.62H495.21V392.37H291Z"/><path id="_235" data-name="235" class="cls-67" d="M291.18,188.28V392.12H495V188.28Zm-.62-.63H495.65V392.81H290.56Z"/><path id="_236" data-name="236" class="cls-67" d="M290.74,187.84V392.56H495.46V187.84Zm-.62-.62h206v206h-206Z"/><path id="_237" data-name="237" class="cls-68" d="M290.31,187.4V393H495.9V187.4Zm-.63-.62H496.52v206.9H289.68Z"/><path id="_238" data-name="238" class="cls-68" d="M289.87,187V393.43H496.33V187Zm-.62-.63H497V394.12H289.25Z"/><path id="_239" data-name="239" class="cls-69" d="M289.43,186.53V393.87H496.77V186.53Zm-.62-.62H497.4V394.56H288.81Z"/><path id="_240" data-name="240" class="cls-69" d="M289,186.09V394.31H497.21V186.09Zm-.63-.62H497.83V395H288.37Z"/><path id="_241" data-name="241" class="cls-69" d="M288.56,185.66V394.74H497.64V185.66Zm-.62-.63H498.27V395.37H287.94Z"/><path id="_242" data-name="242" class="cls-70" d="M288.12,185.22v210h210v-210Zm-.62-.62H498.71V395.8H287.5Z"/><path id="_243" data-name="243" class="cls-70" d="M287.69,184.78V395.62H498.52V184.78Zm-.63-.62H499.14V396.24H287.06Z"/><path id="_244" data-name="244" class="cls-71" d="M287.25,184.35v211.7H499V184.35Zm-.63-.63h213v213h-213Z"/><path id="_245" data-name="245" class="cls-72" d="M286.81,183.91V396.49H499.39V183.91Zm-.62-.62H500V397.11H286.19Z"/><path id="_246" data-name="246" class="cls-72" d="M286.38,183.47V396.93H499.83V183.47Zm-.63-.62h214.7v214.7H285.75Z"/><path id="_247" data-name="247" class="cls-72" d="M285.94,183.1V397.36H500.27V183.1Zm-.63-.69H500.89V398H285.31Z"/><path id="_248" data-name="248" class="cls-72" d="M285.5,182.66V397.8H500.7V182.66Zm-.62-.68H501.33V398.42H284.88Z"/><path id="_249" data-name="249" class="cls-73" d="M285.06,182.22v216H501.14v-216Zm-.62-.68H501.76V398.86H284.44Z"/><path id="_250" data-name="250" class="cls-74" d="M284.63,181.79V398.67h217V181.79Zm-.63-.69H502.2V399.3H284Z"/><path id="_251" data-name="251" class="cls-74" d="M284.19,181.35V399.11H502V181.35Zm-.62-.68H502.64V399.73H283.57Z"/><path id="_252" data-name="252" class="cls-75" d="M283.75,180.91V399.55h218.7V180.91Zm-.62-.68H503.07V400.17H283.13Z"/><path id="_253" data-name="253" class="cls-75" d="M283.32,180.48V400H502.89V180.48Zm-.63-.69H503.51V400.61H282.69Z"/><path id="_254" data-name="254" class="cls-4" d="M282.88,180V400.42H503.32V180Zm-.62-.69H504V401H282.26Z"/><path id="_255" data-name="255" class="cls-4" d="M282.44,179.6V400.86H503.76V179.6Zm-.62-.68H504.38V401.48H281.82Z"/><path id="_256" data-name="256" class="cls-4" d="M282,179.17V401.29H504.2V179.17Zm-.44-.44h223v223h-223Z"/></g><circle class="cls-76" cx="393.07" cy="290.23" r="85.23"/><path class="cls-77" d="M395.73,647.08C407.5,680,407,715.39,406.34,750.29c-.15,7-.23,14.05-2.17,40.64h-9.54c1.95-24.52,2.1-32.66,2.26-40.79.53-34.08,1.15-68.61-10.15-100.1Z"/><path class="cls-78" d="M401.88,511.72h0v.07c22.3,0,43.52,5.47,59.59,16.56,17.46,12,28.61,30.16,28.61,54.49h0A80.67,80.67,0,0,1,465,641.24a87.6,87.6,0,0,1-60.74,24.1v.08h0v-.08a87.64,87.64,0,0,1-60.75-24.1,81,81,0,0,1-25.06-58.4h0c0-23.81,9.61-41.85,25.6-54.05,14.92-11.38,35.14-17,57.82-17v-.07Zm0,36.52v.07h0v-.07c-14.3,0-26.29,3-34.37,9.17-7,5.32-11.14,13.75-11.14,25.43h0a45.09,45.09,0,0,0,14.07,32.53,48.76,48.76,0,0,0,33.83,13.53v-.08h0v.08a48.77,48.77,0,0,0,33.83-13.53,45.09,45.09,0,0,0,14.07-32.53h0c0-11.24-5-19.52-12.84-24.92C430,551.42,416.57,548.24,401.88,548.24Z"/><path class="cls-79" d="M568.43,634.14c-2.31,15.23-3.85,29.36-3.77,43.25s11.11,98.82,15.11,113.54h-7.92c-4.23-15.53-16.57-98.82-16.65-113.46s1.47-29.06,3.85-44.58Z"/><path class="cls-80" d="M561.51,555.19h.08v.07a55.68,55.68,0,0,1,38.75,15.38,51.5,51.5,0,0,1,16,37.26h.08c0,14.56-4,25.73-12.53,33.86s-20,11.9-35.14,11.9v.08h0v-.08c-12.92,0-27.07-2.88-38.29-9-13.92-7.54-23.69-19.59-23.69-36.74h0a51.47,51.47,0,0,1,16-37.26,55.66,55.66,0,0,1,38.75-15.38v-.07Zm.08,36.52h-.08a17.06,17.06,0,0,0-11.84,4.73,16,16,0,0,0-5,11.46h0c0,1.85,1.85,3.62,4.46,5,5.38,3,12.69,4.28,19.61,4.28v-.07h0v.07q6.79,0,8.3-1.33c.85-.88,1.31-3.54,1.31-8h.08a16.06,16.06,0,0,0-5-11.46A17.1,17.1,0,0,0,561.59,591.71Z"/><path class="cls-81" d="M638.74,790.93c6.92-25.51,20.65-84.19,25.88-112.94a774.11,774.11,0,0,0,10.3-78.15L659.7,597.7,661.93,582l10.53-75.34.62-4,2.38-3.25,12.07-16.27,13.69-18.48,12.38,16.86,34.52-63.58,18.15-33.49,12.53,35.85a346.15,346.15,0,0,1,12.84,46.21c1,5.25,1.92,10.57,2.62,15.9l12.38-9.91,9.53,18,13.15,24.84,2.69,5-1.23,5.54-16.22,75.63-2.62,12.2-12.84.59A694.52,694.52,0,0,0,777.42,692c-6.23,28.68-13,71.24-15.92,99h-35c3.08-28.69,11.66-75.76,18.12-105.55a718,718,0,0,1,26.53-92l3.69-10.2,9.53-.45,12.46-57.88-1-1.93-5.53,4.44-27.76,22.25.31-34.74a208.37,208.37,0,0,0-4.16-42.52c-.23-1.1-.46-2.21-.69-3.4L730.51,519.7,717.9,543.06l-14.14-19.22-6.54,46.58,13.07,1.85-.92,14.78a807.91,807.91,0,0,1-11.76,96.48c-5.31,29.28-16.46,80.85-23.76,107.4Z"/><path class="cls-82" d="M-36.22,1340.17c0,20.65,19.27,37.39,43.06,37.39h991c23.78,0,43.12-16.74,43.12-37.39V726.87C531.55,645.59-30.57,917.47-30.57,917.47l-5.78,422.7Z"/></svg>